<svg xmlns="http://www.w3.org/2000/svg" viewBox="-0.47 -0.47 755.37 78.31"><path fill="none" fill-rule="evenodd" stroke="#000" stroke-linecap="round" stroke-width=".945" d="m457.82 72.7.7-.2q.4-.1.5.2.8 0 1.3-.1.1-.1.2-.1.5-.2.8-.5.5-.5.55-1.3t-.05-1.5v-.6q-.1-.5-.1-1v-1.1q-.1-2.9-.15-5.8t-.15-5.8q0-1-.05-1.95t-.05-1.95v-.3q-.2-.4-.1-.4v-.1q-.1-.6-.1-1.15t.9-.75q.8-.2 1.05.25t.45.95v.1q.2 0 .2.5 0 .1.4 0t.5.3q.1.5-.4.6.4.6.7.8.4-.2.6.2t-.2.6q.2.4.5.9.4-.2.6.2.2.3-.1.5.3.4.6.9.3 0 .5.3.1.2 0 .4.1.3.25.55t.35.45q.2 0 .3.3.1.1.1.3.4.6.7 1.2.1 0 .2.1v.1q.5.8 1.05 1.6t1.15 1.6q2.2 3 4.4 6.6.5.9 1.05 1.8t1.45 1.5q1.1.6 2.9.6.3-.1.5.2h.8l.6-.2q.4-.1.6.2.4.1.7.1l.6-.3q.4-.1.6.3v.1q.2 0 .4.1l.8-.4q.4-.2.6.2.1.1.1.3l1.3-.5q.4-.2.5.2.1.1.1.2l1.3-.5q.4-.1.6.3v.2l1.3-.5q.4-.1.6.3v.2l1.3-.5q.4-.1.6.3v.2l1.3-.5q.4-.1.6.3v.3l1.3-.5q.4-.2.5.2.1.1.1.2h.3l.9-.4q.4-.2.6.2.1.1.1.2h.2l1.1-.5q.3-.1.5.2l.5-.5-.2-.2-.5-.4.3.1q.3.1.7.1 0-.1.1-.2-.7-.8-.6-1.3-1.1-1.6-2.05-3.3t-1.95-3.4q-1.9-1.9-3.05-4.6t-2.1-5.55-2.1-5.5-3.05-4.55q0-.1-.1-.1l-.1-.1q-.7-1.3-1.35-2.6t-1.35-2.6q-.2-.3-.5-.6-.2-.4-.4-.7t-.2-.8q0-.7.4-1.1t.7-1q1.4-2.3 2.8-5l.1-.1h.1q2.1-2.2 3.35-5.2t2.45-6.05 3.4-5.25q.6-1.2 1.3-2.4t1.4-2.3q.2-.3.4-.55t.4-.55q.5.6 1.2.6.7-.1 1.4-.6-.2.5-.3.7-.2.4-.5.8t-.6.9q-.7 1.1-1.35 2.3t-1.35 2.4l-.1.2-.2.1q-2.1 2.2-3.3 5.15t-2.4 6-3.4 5.25q-1.4 2.5-2.7 4.8-.2.3-.5.5t-.3.4q0 .1.3.4l.5.5q.7 1.3 1.35 2.55t1.25 2.45q1.9 2 3.1 4.65t2.1 5.55 2.05 5.5 3.05 4.5l.1.2.1.1q1.1 1.8 2.05 3.55t2.15 3.45q.3.4.5.9.5.4.6 1.05t-.3 1.25q-.6.7-1.15 1.4t-1.45 1.2q-.5.3-.9.3h-.9q-.5-.1-.8 0-.8 0-1.7.05t-1.8.15q-.2.1-.4 0-.4 0-.85.05t-.95.15q-.3.1-.5-.1-3.3.1-6.9-.2-.2.1-.3 0-.4 0-.85-.05t-1.05.05q-.4.1-.6-.2l-1.2.6q-.4.2-.6-.2t.1-.6l-1 .5q-.4.2-.6-.2-.1-.1-.1-.3l-1.2.5q-.4.2-.5-.3-.1-.2.1-.4-.3-.1-.5-.1l-1.4.5q-.4.2-.5-.3-.1 0-.1-.1l-1.6.4q-.3.1-.5-.2l-1 .5q-.4.2-.6-.2t.2-.6l1.8-.9.8-.4q-.1-.1-.3-.2l-.5.2h-.1l-1.6.6-1.7.5q-.4.2-.6-.3-.1-.4.3-.5l1.7-.6 1.9-.6q-.4-.5-.9-1.3l-1 .3-1.8.6-2 .7q-.4.2-.5-.3-.2-.4.2-.5l2-.8 1.9-.5.7-.3q-.1-.1-.2-.3t-.2-.3v-.1l-.9.3-2 .7-1.7.5q-.4.2-.6-.3-.1-.4.3-.5l1.8-.6 1.9-.6.7-.3q-.3-.5-.6-.9l-.9.3-1.8.6-1.8.8q-.4.2-.6-.2t.2-.6l1.9-.8 1.8-.7.7-.2q-.3-.5-.6-.9l-.7.2-1.8.7-1.7.9q-.5.1-.6-.3-.2-.4.2-.6l1.7-.8h.1l1.8-.7v-.1q.1 0 .5-.1-.2-.4-.5-.7l-.5.2-1.8.7-1.6.5q-.5.1-.6-.3t.3-.6l1.6-.5 2.1-.8q-.3-.5-.8-.6l-1.7.8-1.6.6q-.5.2-.6-.2-.2-.5.2-.6l1.7-.7 1.7-.8q-.1-.2-.3-.45t-.5-.35l-3.9 1.2q-.2.1-.3 0 0 1.9.1 3.5v1q0 .5.1 1v.5q0 1.2-.1 2.4t-1 2.2q-1.1 1.2-2.6 1.35t-2.9.15h-.5l-2 .6q-.4.1-.5-.3-.1-.2 0-.3h-.4q-.2 0-.8.1-.3.1-.5-.2h-.6q-.3 0-.9.1-.3.1-.5-.1l-.2-.1-1.4.6q-.4.2-.6-.3v-.1l-1.3.4q-.4.1-.6-.3l-1.1.5q-.4.2-.6-.2-.2-.5.7-.8h-.2l-1.7.5q-.5.1-.6-.3l-1.5.6q-.4.2-.6-.2v-.1l-1.2.3q-.4.1-.5-.3t.3-.6l.7-.3-.6.2-1.7.7q-.4.2-.6-.2l-1.4.5q-.4.2-.5-.3-.1-.1-.1-.2 0-.3.3-.4l1.8-.9h.1l.6-.2-.2-.2q-.2-.2-.5-.2l-1.7.8-1.8.9q-.4.2-.6-.2t.3-.6l1.7-.9 1.8-.8q.1 0 .2-.1-.1-.2-.2-.45t-.2-.55l-1.6.7-1.9.8q-.5.2-.6-.2-.2-.5.2-.6l2-.9 1.6-.6h.1q-.1-.4-.1-.8l-1.3.6-1.9.7q-.4.2-.5-.2-.2-.4.2-.6l1.9-.7 1.7-.8q0-.3.1-1v-.1l-1.6.4-1.9.8q-.4.1-.5-.3-.2-.4.2-.6l1.9-.7 2-.6v-1l-1.9.7-1.9.5q-.4.2-.5-.3-.2-.4.3-.5l1.8-.6 2.2-.8q.1-.4.1-.8l-1.7.8-1.7.7q-.4.1-.5-.3-.2-.4.2-.6l1.6-.6 2.1-1q0-.4-.05-.7t-.35-.6l-1.7.8-1.6.7q-.5.2-.6-.2-.2-.4.2-.6l1.7-.8 1.7-.7h.1l.5-.2q0-.5-.2-.6h-.1l-1.9.5-1.7.6q-.4.2-.5-.2-.2-.4.2-.6l1.7-.6 1.9-.6.6-.2v-.3q-.1-.6-.3-.8l-1.8.7-1.8.8q-.4.2-.6-.2t.2-.6l1.8-.9h.1l2.3-.8v-.8l-1.5.8-1.8.5q-.4.2-.5-.3-.2-.4.3-.5l1.7-.5 1.6-.9h.2v-1.1l-1.9.8-1.7.7q-.4.1-.5-.3-.2-.4.2-.6l1.7-.6 1.8-.8.4-.2v-1.1l-1.7.6-1.8.6q-.4.2-.5-.2-.2-.5.2-.6l3.5-1.3h.1l.2-.1v-.8l-1.5.7-1.8.7q-.4.1-.5-.3-.2-.4.2-.6l1.8-.6 1.6-.8q0-.1.2-.1 0-.7-.1-1.1l-1.9.6-2 .5q-.4.1-.5-.3-.2-.4.3-.6l1.9-.5 2.3-.7q.1-.2.1-.7v-.2l-1.6.7-1.8.6q-.4.2-.5-.2-.2-.4.2-.6l1.8-.6 1.6-.8.3-.1v-.1q0-.7-.3-1l-1.6.6-1.7.8q-.5.2-.6-.3-.2-.4.2-.5l1.8-.8 1.6-.6h.1l.5-.2q0-.6-.3-.8l-1.8.7-2 .5q-.4.2-.5-.3-.2-.4.3-.5l1.9-.6 1.8-.7h.1l.5-.2v-.4q0-.4-.2-.4l-1.7.7-2 .6q-.4.1-.5-.3-.2-.5.3-.6l1.9-.5 1.6-.7.6-.3q0-.7-.3-1l-1.9.8-1.6.8q-.4.2-.6-.2t.2-.6l1.6-.8.1-.1 2-.7.5-.2q.1-.5-.1-.7h-.1l-1.8.6-1.7.8q-.4.2-.6-.2t.2-.6l1.7-.8h.1l1.8-.7.6-.2q0-.3-.05-.6t-.35-.6l-1.6.6-2 .6q-.4.1-.5-.3-.2-.4.3-.5l1.9-.7 1.7-.5.7-.2q0-.7-.4-.8l-1.7.7-1.9.8q-.5.2-.6-.2-.2-.4.2-.6l2-.8 1.6-.8h.1l.8-.2q0-.6-.3-.8l-1.7.7-1.9.8q-.4.2-.5-.3-.2-.4.2-.6l1.9-.7 1.6-.7.8-.3v-1.1l-.6.2-1.9.6-1.9.7q-.4.2-.5-.2-.2-.4.2-.6l1.9-.7V28l2-.6.8-.3q.1-.6.1-1.1l-.8.2-1.7.5-1.6.8q-.5.1-.6-.3-.2-.4.2-.6l1.6-.7h.1l1.8-.6 1-.2v-.9l-.5.2h-.1l-1.6.6-1.7.6q-.4.2-.5-.2-.2-.5.2-.6l1.7-.7 1.6-.5 1-.4v-1.1l-.6.2-1.9.7-1.9.6q-.4.1-.5-.3-.2-.5.3-.6l1.8-.5 2-.8.8-.2v-1l-.7.2-1.9.8-1.6.7q-.5.2-.6-.2-.2-.4.2-.6l1.7-.8 1.9-.7 1-.4v-1l-.8.3-1.9.7-1.7.8q-.4.2-.6-.2t.2-.6l1.7-.8h.1l2-.8 1-.3v-1l-.9.3-1.7.5-1.9.7q-.4.1-.5-.3-.2-.4.2-.6l1.9-.6 1.8-.5 1-.5v-1.1l-.8.3-1.7.7-1.8.8q-.4.2-.6-.2t.2-.6l1.9-.8 1.7-.8h.1l1-.3q-.1-.5-.5-.5l-1.7.8-2 .8q-.4.1-.5-.3-.2-.4.2-.6l1.9-.7 1.7-.8.8-.4q0-.5-.1-1.1l-.5.2-1.8.9-1.7.6q-.4.2-.5-.2-.2-.5.2-.6l1.7-.7 1.7-.8.9-.3q-.1-.7-.6-.8l-1.7.5-1.8.6q-.4.1-.5-.3-.2-.5.3-.6l1.7-.5 1.8-.6.6-.2v-.8q0-.2-.3-.2l-1.8.9-1.9.8q-.5.2-.6-.2-.2-.5.2-.6l1.9-.9 1.8-.8h.1l.5-.2v-.4l-.9.4-1.6.9q-.4.2-.6-.2t.2-.6l1.4-.8q.1-.3.4-.4l1.1-.3q.1-1.6 1-2.6 1.1-1.3 2.75-1.5t3.15-.2h.9q1.8 0 3.65.15t3.75.25q.6.1 1.25.15t1.25.05v.1q1 0 2 .1t2 .1h.6q.4.1.8.1t.8.1q.8.3 1.5.6t1.2.9q.9 1.1 1 2.3t.1 2.5v.7q-.1 1.5-.05 2.95t.35 2.95v-.1l1.7-.8 2.2-1q.2-.2.3-.4l-1.2.5-2 .8q-.4.1-.6-.3-.1-.4.3-.6l1.9-.7 1.8-.8.4-.2q.1-.2.2-.5l-1 .4-2 .6q-.4.1-.5-.3-.1-.5.3-.6l1.9-.5 2-.8q0-.1.2-.4l-.7.3-2 .9q-.4.2-.6-.3-.2-.4.3-.5l1.9-.9 1.7-.7V7l.1-.1-.4.1-1.6.9q-.4.2-.6-.2t.2-.6l1.6-.9 1.6-.8q.1 0 .1-.1l-1.7.6q-.4.2-.5-.3-.2-.4.2-.5l1.8-.7 1.2-.4q.6-.8 1.4-1.2 1.2-.7 2.55-.85t2.65-.15h1.7q3.2-.3 6.6-.4t6.7.1q.9 0 1.8.05t1.8.05h1.6q.4 0 .9.3.8.4 1.25 1.05t.85 1.05q-1.9-.1-2.3.9-.5-.7-1-.9-.2-.1-.9 0h-.5q-.9 0-1.8-.05t-1.9-.05q-3.1-.2-6.45-.1t-6.55.4h-1.5q-1.2 0-2.3.05t-2 .65q-.9.5-1.4 1.4l-1 1.8q-1.4 2.7-2.7 5.2v.1q-1.4 2.5-2.5 5.25t-2.5 5.25q-.6 1-1 1.8 0 1-.3.6l-.6 1q0 .2-.4.3-.3.2-.5.1-.7-.1-.8-.55t0-.95q-.5.2-.4 0 .3-.5.6-1.1v-.2q-.3 0-.4-.3-.1-.5.4-.6v-.8q-.2-.1-.3-.3-.1-.4.3-.5 0-.2-.1-.2-.4.1-.6-.3t.6-.7V21q0-1-.1-2v-.1q-.1-2.7-.15-5.45t.05-5.45v-.7q.1-.8.05-1.65t-.55-1.45q-.3-.3-.75-.5t-.85-.3q-.3-.1-1.1-.1h-.6q-1-.1-2-.15t-2-.15q-.6 0-1.25-.05t-1.25-.15q-1.8-.1-3.6-.25t-3.6-.15h-.9q-1-.1-2.15 0t-1.75.7l1-.5q.4-.2.6.2t-.2.6l-1.6.8-.4.2q-.1.4-.05.85t.05.85q.1.4.1.6.5 6.2.5 12 0 3.7-.15 7.45t-.35 7.45q0 1.7-.05 3.45t-.05 3.45v5.8q-.1 3-.15 6t.15 6q0 2 .05 4t-.05 3.9q0 .4-.05.75t-.05.65q-.1.7-.15 1.3t.05 1.2q0 .4.15.75t.35.75l1.9.5q1.6.1 3.2.15t3.2.15q.7 0 1.35.05t1.25.05q.3 0 .4.1h1.5q.3-.2.5 0 .3.1.6.05l.9-.15q.3-.1.5.2.2 0 .5-.05l.9-.15q.3-.1.5.2h.7ZM367.02 14l-1.5.7-1.4.7-1.7.8q-.4.2-.2.6 0 .1.1.2l-1.7.5q-.4.2-.3.6t.5.3l1.6-.5 1.8-.7 1.7-.7 1.7-.7q-.3.6-.6 1.1-.2-.4-.6-.3l-1.7.7-1.7.8-1.8.6-1.7.7q-.4.2-.3.6.2.4.6.2l1.8-.6 1.7-.7 1.8-.8 1.6-.6-.6 1.2q-.1-.4-.5-.2l-1.8.6-1.6.8-1.8.6-1.6.7q-.4.2-.2.7.2.4.6.2l1.5-.8 1.8-.6 1.6-.7 1.8-.7q-.3.6-.5 1.1-.2-.2-.5-.1l-1.6.6h-.1l-1.6.7-1.6.5v.1l-1.5.7q-.4.2-.2.6t.6.2l1.5-.7 1.5-.6 1.7-.6 1.4-.5q-.2.4-.4 1-.1-.1-.2 0l-1.8.6v.1h-.1l-1.4.7-1.7.7-1.7.6q-.5.2-.3.6t.6.3l1.7-.7 1.8-.7 1.4-.7 1.3-.5-.4 1-1.5.5-1.5.4-1.7.5h-.1l-1.5.6q-.4.2-.2.6t.6.2l1.4-.5 1.7-.5 1.6-.5.9-.3-.2 1-1.1.4h-.1l-1.6.7-1.5.5-1.6.7q-.4.2-.2.6t.6.2l1.5-.6 1.5-.5 1.6-.8.8-.2q-.1.7-.1 1.5l-1.1.4-1.8.4-1.5.5h-.1l-1.5.7q-.5.2-.3.6t.6.2l1.6-.6 1.5-.5 1.7-.4.1-.1.7-.2v1.3l-1.2.5-1.6.7-1.7.8-1.4.6q-.4.2-.2.6.1.4.6.2l1.4-.6 1.7-.8 1.6-.6v-.1l.7-.3v1.1l-1.2.4-1.5.7-1.5.4-.1.1-1.5.7q-.4.3-.2.7t.6.1l1.5-.7 1.5-.5 1.5-.6.9-.3v1.3l-1.1.5-1.7.7-1.5.4-1.5.6q-.5.2-.3.6.1.4.6.3l1.5-.6 1.5-.5 1.7-.6.7-.4v1.2l-1.1.3-1.5.6-1.7.7-1.8.7q-.4.2-.2.6t.6.3l1.7-.8 1.8-.7 1.4-.5.7-.2q0 .3-.05.6t-.05.6v.1l-1 .3-1.6.5h-.1l-1.4.6-1.6.7q-.4.1-.2.5.2.5.6.3l1.5-.7 1.5-.5 1.6-.5.6-.2q-.1.7-.1 1.2l-.8.3-1.5.5h-.1q.1 0 0 .1l-1.4.7-1.5.8q-.4.2-.2.6t.6.2l1.5-.8 1.4-.7 1.5-.6q.3.3.35.65t.05.65l-1.9.6h-.1l-1.6.6h-.1l-1.5.7q-.4.1-.2.6.1.4.5.2l1.6-.7 1.6-.5 1.7-.5v1.3l-1.9.8-1.7.5-1.8.5q-.4.1-.3.5.1.5.6.3l1.7-.4 1.8-.6 1.6-.6q.1.2.1.5v.4l-.4.1h-.1l-1.6.8-1.6.5-1.7.6q-.4.1-.2.6.1.4.5.2l1.7-.5 1.6-.6h.1l1.6-.7q.2.2.3.5t.2.7l-2.2.6v.1l-1.7.5-.1.1-1.4.7q-.4.2-.2.6t.6.2l1.4-.7 1.7-.6 1.7-.4V52h.1q.3.2.5.9l-1.9.6h-.1l-1.6.7-1.7.7q-.4.1-.2.6.1.4.5.2l1.7-.7 1.6-.6 1.6-.5q.3.2.5.9l-2.1.9-1.5.7-1.5.6q-.4.2-.3.6.2.4.6.3l1.6-.7 1.4-.7 1.8-.7q.3.2.5.8l-.3.1-.1.1-1.4.6-1.6.6h-.1l-1.5.8q-.3.2-.1.6t.6.2l1.4-.8 1.6-.5v-.1h.1l1.4-.6q.3.2.45.5t.35.6l-2.2 1-1.5.4-1.8.6q-.4.1-.3.6.2.4.6.2l1.7-.5 1.6-.5 1.8-.8q.4.1.55.35t.25.45l-1.9.9-1.7.7-1.7.8q-.5.2-.3.6t.6.2l1.8-.7 1.6-.8 1.6-.7q.5.1.7.35t.3.45l-1.8.8-1.7.7-1.7.8q-.4.2-.2.6t.6.2l1.6-.7 1.8-.8 1.7-.8q.4.2.7.6l-1.6.5-1.5.4v.1h-.1l-1.4.7q-.4.2-.2.6t.6.2l1.4-.7 1.4-.5 1.7-.4q.4.1.65.25t.35.35h-.1l-1.5.8-1.8.6-1.4.5q-.4.1-.3.6.2.4.6.2l1.4-.4h.1l1.7-.7 1.6-.7q.5.1.8.25t.5.35l-1.9.5-.1.1-1.7.7-1.5.6q-.4.1-.2.6.1.4.6.2l1.4-.5 1.8-.8 1.7-.5.7-.2.8.6-1.6.7-1.4.6-1.4.4q-.5.1-.3.6.1.4.5.3l1.5-.5 1.4-.6 1.7-.6q.5-.1.7-.05t.3.15l-1.4.7-1.8.8-1.7.7q-.4.2-.3.6.2.5.6.3l1.8-.8 1.7-.8 1.6-.7.5-.2q0 .1.2.2.2.2.5.4l-1.5.6-1.6.4-1.7.5q-.4.1-.3.6.1.4.5.3l3.3-1h.1l1.6-.5q.5-.1.7-.05t.3.15l-1 .3-1.8.6-1.7.6q-.4.1-.3.5.1.5.6.3l1.7-.5 1.8-.6 1.6-.6q.3 0 .6.1l-3.7 1.2q-.5.1-.3.6.1.4.5.3l1.8-.6 1.7-.6 1.3-.4q.4.2.9.4l-.6.2-1.7.5-1.6.6q-.4.2-.2.6t.6.3l1.5-.7 1.6-.4h.1v-.1l1.4-.5q.4-.1.6 0l-.6.2-1.6.5h-.1l-1.6.8q-.4.2-.2.6t.6.2l1.6-.8q-.4.3-.2.7t.6.2l1.5-.7 1.6-.6 1.3-.4q.4.1.8.1l-.5.3-1.4.7-1.7.5q-.5.1-.3.6.1.4.5.3l1.5-.5q-.1.2 0 .3.1.5.5.3l1.6-.6q.1.1.2.3.1.4.5.3l1.4-.5q.1.4.5.3l1.8-.5 1.5-.4.7-.2h.2l-2.2.7q-.4.1-.3.5.1.5.6.3.1.1.3 0l1.3-.4q.2.4.6.2l1.3-.6q-.1.2 0 .4.2.4.6.2l1.4-.6v.2q.2.4.6.3l1.8-.6h.25q.05 0 .05-.1l.6-.1h1q.1.1.4 0 3-.2 6.3-.65t6.1-1.25 4.3-2.1q2.8-1.6 5.6-3.5t5-4.3q2-2.5 3.2-5.95t1.5-6.55q.2-2.3-.25-3.65t-2.65-2.65q-.5-.3-.95-.3h-.95q-.5.1-.7.1-.9 0-1.8-.05t-1.8-.05q-6.4-.3-12.9-.2h-.7q-1.2 0-2.5.1t-2.3.9q-.6.4-1 1.2l-.6.2-1.4.5-1.7.5-1.7.6q-.5.1-.3.6.1.4.5.3l1.8-.6 1.6-.6 1.3-.4q-.2.3-.3.5t-.2.5l-.8.2-1.5.5-1.7.4h-.1l-1.5.7q-.4.2-.2.6t.6.2l1.5-.6 1.7-.5 1.4-.4q-.2.4-.55.85t-.85.85l-1.4.7-.9.4q-1.7.4-3.55.05t-2.85-1.65q-1.1-1.4-1.3-3.15t-.3-3.45v-1q-.1-2-.15-4.05t-.05-4.05-.05-4-.05-4v-3.4q.1 0 .3-.05t.4-.05q.2.3.6.1l1.3-.6q.5-.1 1.1-.2l-.6.3q-.5.2-.3.6t.6.2l1.6-.6 1.3-.6h1q.8-.2 1.1-.1.2.1.3.2l-.9.3-1.6.5h-.1l-1.5.7q-.4.2-.3.6.2.4.6.2l1.6-.6 1.6-.6 1.5-.4q.4.5.7 1.1l-.8.3h-.1l-1.5.6-1.5.6q-.4.2-.3.6.2.4.6.3l1.5-.6 1.6-.7 1-.3q.1.4.3.8t.3.7l-.9.5-1.4.7-1.7.7q-.4.2-.2.6t.6.2l1.6-.6h.1l1.4-.8.8-.4.2.6q.1.3.2.5l-.7.3-1.8.7-1.7.8q-.5.2-.3.6t.6.2l1.8-.7 1.7-.8.8-.2.3.3-1.1.4-1.6.6q-.4.1-.3.6.2.4.6.2l1.3-.4v.1q.1.5.6.4l1.5-.5 1.3-.5q.3 0 .5.1l-1.4.6q-.4.1-.2.5.1.5.6.3l1.3-.6q.2.2.4.1l1.6-.4q0-.1.1.3.2.5.6.3l1.5-.4v.3q.2.4.6.2l1.5-.5q.2.4.6.2l1.1-.3h.4q.1.5.6.3l1-.2h.3q0 .1.1.2.2.4.6.2l.9-.4h.4q0 .2.1.3.2.4.6.2l.9-.5q.8 0 1.2.1-.3.2-.2.5.2.4.6.2l1.6-.7h2.1q.1.1.2.1 2.2 0 3.55-.35t2.55-2.65q.3-.6.3-1.1t-.1-1.1q-.1-.5-.1-.7-.2-3.2-1.4-6.5-.9-2.6-2.3-5.05t-3.4-4.35q-1.5-1.7-3.4-2.9t-3.9-2.3q-2.4-1.3-4.9-2.35t-5-1.85q-2.7-.8-5.65-.95T396.82.1q-2.6-.1-5.2 0t-5.1.6h-.1v.1q-3.3.9-6.8 2.25t-6 3.75l-.1.1-.8.3-1.6.6q-.4.1-.3.5l.2.2-1.7.6-.2.2-1.6.6q-.4.2-.2.6 0 .1.1.1l-1.6.6q-.5.2-.3.6t.6.3l1.7-.7 1.6-.5-1.7.6-1.7.6-1.5.8q-.4.2-.2.6 0 .1.1.1l-1.4.4q-.4.1-.3.6.2.4.6.3l1.6-.5 1.7-.6 1.7-.6.9-.4q-.2.3-.3.5-.2-.2-.5 0zM15.62 75.6l-.7.1q-.4.1-.5-.1h-1l-1.3.5q-.4.2-.6-.2v-.4h-.3l-1.5.7q-.4.2-.6-.2-.1-.2 0-.4l-1.2.5q-.4.2-.6-.2t.2-.6l1.1-.6-1.5.5-1.8.7q-.4.2-.5-.2h-.2q-.1 0-.8.2-.1.1-.2.1-.4 0-.5-.3-.1-.5.3-.6l.6-.2 1.2-.6 1.4-.6q-.1-.1-.2-.3l-1.3.7-1.6.7-1.6.6q-.4.2-.6-.2t.2-.6l1.7-.7 1.5-.6 1.1-.6q-.1-.3-.25-.55t-.25-.45l-.9.3-1.5.5-1.5.6q-.4.2-.6-.2t.2-.6l1.5-.7h.1l1.5-.4.9-.4v-.2l-.1-.1v-.8l-.6.3v.1l-1.7.4-1.7.6q-.4.1-.6-.3-.1-.4.3-.6l1.8-.5 1.6-.5.9-.5q-.1-.4-.1-.8l-.6.3-1.7.8h-.1l-1.7.4q-.5.1-.6-.3t.3-.5l1.8-.5 1.6-.7 1-.5v-.4q0-.4-.5-.5l-1.5.7-1.7.8q-.4.1-.6-.3t.2-.6l1.7-.7 1.6-.7.8-.3v-1l-.6.2-1.7.6h-.1l-1.4.5q-.4.1-.6-.3-.1-.4.3-.5l1.5-.5 1.7-.7.9-.3v-1.1l-.8.2-1.8.5-1.6.6q-.4.1-.6-.3-.1-.5.3-.6l1.7-.6 1.7-.4 1.1-.4q.1-.3.1-.9l-.7.3-1.5.4-1.7.7q-.4.2-.6-.3-.1-.4.3-.5l1.7-.7h.1l1.4-.5 1-.4q0-.6.1-1l-.6.2-1.7.8h-.1l-1.5.4q-.4.2-.6-.3-.1-.4.3-.5l1.5-.5 1.8-.7.9-.4V56l-.6.2-1.5.6-1.8.7q-.4.1-.6-.3-.1-.4.3-.6l1.7-.6 1.6-.6.9-.4v-.9l-.9.3-1.6.7-1.6.8q-.4.2-.6-.2t.2-.6l1.6-.8 1.6-.7h.1v-.1l1.2-.4q0-.4-.1-1.1l-.5.2-1.6.7-1.7.8q-.4.1-.6-.3t.2-.6l1.7-.7 1.7-.7.8-.4v-.8l-.7.2-1.4.6-1.6.8q-.4.2-.6-.2t.2-.6l1.6-.8 1.4-.7h.1l1-.2v-1.2l-.9.3-1.5.5-1.6.6q-.4.2-.6-.2t.3-.6l1.5-.6V48h.1l1.5-.4 1.2-.5V47q0-.3-.4-.3l-1.7.6-1.8.7q-.4.1-.6-.3-.1-.4.3-.6l1.7-.6 1.8-.7.7-.3v-1.1l-.7.3-1.7.6-1.5.5q-.4.2-.6-.2-.1-.5.3-.6l1.6-.6 1.6-.5 1.1-.5q0-.7-.4-.9l-1.5.7-1.8.7q-.4.1-.6-.3-.1-.4.3-.6l1.7-.6 1.6-.7.8-.3q0-.3.05-.65t.05-.65l-.9.4-1.7.5-1.6.7q-.4.2-.6-.2t.2-.6l1.6-.8h.1l1.7-.5 1.3-.5v-.8l-1 .3-1.6.8-1.5.7q-.4.3-.6-.1t.2-.7l1.5-.7 1.6-.8h.1l1.4-.5v-1.1l-1 .5-1.6.5-1.8.8q-.4.2-.6-.2t.3-.6l1.7-.8h.1l1.6-.6 1.3-.6q.1-.4.1-.8l-1.1.3-1.8.5-1.4.4q-.4.2-.6-.2-.1-.5.3-.6l1.5-.5 1.7-.4 1.4-.4v-1.4l-1.5.5-1.5.5h-.1l-1.7.5q-.5.1-.6-.3-.1-.5.3-.6l1.8-.4 1.5-.6 1.7-.6v-.8l-.8.3-1.7.6-1.7.5q-.4.2-.6-.3-.1-.4.3-.5l1.8-.6 1.6-.6 1.1-.3v-.9l-.9.3-1.6.7-1.5.6q-.4.1-.6-.3-.1-.4.3-.6l1.4-.5 1.7-.7 1.2-.5V27q0-.3.1-.6l-1.3.4-1.4.4-1.6.8q-.4.2-.6-.2t.2-.6l1.6-.8h.1l1.4-.5 1.6-.4v-1.2l-1.5.4-1.8.5-1.5.6q-.4.1-.6-.3-.1-.4.3-.6l1.5-.6h.1l1.7-.4 1.8-.5q.1-.4.1-.8l-1.4.7-1.5.7-1.5.6q-.4.2-.6-.3-.1-.4.3-.5l1.4-.6 1.5-.7 1.8-.9q.1-.6.1-1l-1.5.6-1.6.8-1.8.7q-.4.2-.6-.2t.3-.6l1.7-.8 1.7-.7 1.8-.8v-1l-1.5.7v.1l-1.6.4-1.6.8q-.4.2-.6-.2t.2-.6l1.6-.8h.1l1.6-.5 1.9-.9v-1.2l-1.7.6-1.7.6-1.7.7q-.4.2-.6-.2t.2-.6l1.7-.8h.1l1.7-.6 2-.6q.1-.5.1-1.1l-1.6.5-1.5.7-1.6.6q-.4.1-.6-.3-.1-.4.3-.6l1.5-.5 1.6-.7 1.9-.6v-.9l-1.3.5-1.8.7-1.5.4q-.4.1-.6-.3-.1-.4.3-.5l1.6-.5 1.7-.7 1.6-.6v-.8l-1.5.5-1.8.5-1.7.7q-.4.2-.6-.2t.3-.6l1.7-.7.1-.1 1.7-.4 1.8-.8q0-.7-.1-1l-1.7.6-1.6.7h-.1l-1.5.5q-.4.1-.6-.3-.1-.4.3-.6l1.5-.4 1.6-.8h.1l2.1-.7V6.6l-1.5.6-1.4.6-1.8.6q-.4.2-.6-.2-.1-.4.3-.6l1.7-.7 1.5-.5 1.9-.7v-.5l-.8.2-1.5.4q-.1.1-.2.1l-1.7.6q-.4.2-.6-.2-.1-.5.3-.6l1.7-.7h.1l.4-.1 1.1-.5 1.4-.7q.3-.9 1.1-1.6.5-.6 1.25-.85T10.02.8h2.4q2 0 4.1.1h.1q5.5.6 11 .7t10.9.4q3.4.2 6.85.05t6.85-.35q.9-.1 1.85-.15t1.85-.05q.9-.1 1.8-.1h2.5q.3-.1.7-.1t.8.1q.7.1 1.35.35t1.25.85q.8.9.9 1.95t.1 2.15q0 .4-.1.5v5.1q.1 1.4.1 2.75v2.65q0 .2.1.5 0 1.2-.15 2.3t-1.05 2.1q-.5.6-1.2.85t-1.5.45q-.4.1-.75.1h-1.45q-.4 0-.9.1l-1.6.5-1.7.6q-.4.2-.6-.2v-.2l-1.2.3q-.3.1-.5-.1l-1.2.6q-.4.2-.6-.2t.2-.6l.9-.4h-.8l-.6.2-1.7.4q-.5.2-.6-.3v-.2l-1.6.7q-.4.2-.6-.2l-.9.4q-.4.2-.6-.2t.3-.6h-.7l-1 .4q-.1.1-.8 0l-1.4.4q-.4.2-.6-.2v-.1l-1.4.4q-.4.2-.6-.2-.1-.3.1-.5l-1.5.5q-.4.2-.6-.2l-1.5.6q-.4.2-.6-.2-.1-.2 0-.4l-1.4.6v2.2h4.3q2.4-.1 4.85-.25t4.85-.25h5.7q.6.1 1.2.1h3.7q1.3-.1 2.4.05t2.1 1.05q1.1 1 1.25 2.25t.25 2.55q0 1.4.1 2.75t.2 2.75q0 .9.1 1.85t.2 1.85v.6q.1.4.1.8v.8q-.2.8-.45 1.5t-.85 1.3q-.6.5-1.3.75t-1.5.35h-.3q-1.2 0-2.8-.1l-1.1.5-1.5.5-1.8.7q-.4.2-.6-.2t.3-.6l.5-.2-.5.2-1.7.6q-.4.2-.6-.2-.1-.4.2-.6l-1 .5q-.5.2-.6-.2l-.2.1-1.7.5q-.4.2-.5-.2 0-.1-.1-.1l-.8.4q-.4.2-.6-.2t.2-.6l1.4-.7.9-.5-1.1.5-1.8.6-1.6.6q-.4.2-.6-.2-.1-.2 0-.4l-1.1.3q-.5.2-.6-.2v-.1l-1.5.6q-.4.2-.6-.2-.1-.4.3-.6l.7-.3-.9.3-1.7.5q-.3.1-.4 0l-1.2.4q-.4.2-.5-.2-.1-.1-.2-.1l-1.5.7q-.4.2-.6-.2-.1.3-.1.6v.2h.4q1.4.1 2.85.2t2.85.2h.1q4.8.7 9.65.7t9.55.3h2.6q1.3 0 2.45.2t2.15 1.1q1 1 1.2 2.35t.2 2.75v1.3q.1 2.1.15 4.25t.05 4.25v.4q0 1.2-.15 2.35t-1.15 2.05q-.6.6-1.3.8t-1.5.4h-.75q-.35 0-.75-.1h-1.7l-1.4.5-1.7.6q-.4.2-.6-.2v-.3l-1.5.4q-.5.2-.6-.3v-.1l-1.5.6q-.5.2-.6-.2-.1-.1-.1-.2l-1.4.6q-.4.2-.6-.2v-.3l-1 .4q-.4.2-.6-.2-.1-.2 0-.4l-1.4.7q-.4.2-.6-.2t.5-.7l-1.7.6q-.3.2-.5-.2l-1.3.5q-.4.2-.6-.2-.1-.2 0-.4l-1.2.6q-.4.2-.6-.2t.2-.6l1.1-.5-1.5.4-1.8.4q-.4.1-.5-.2l-1.1.3q-.3.1-.5-.1l-1.5.4q-.4.2-.5-.3-.1-.4.3-.5l1.7-.5h-.5l-.9.4-1.6.4q-.4.2-.5-.3-.1-.1-.4 0l-1.5.4q-.4.2-.6-.3v-.1l-1.3.3q-.4.1-.6-.2l-.9.4q-.4.2-.6-.2-.1-.2 0-.3l-1.4.7q-.4.2-.6-.2-.1-.1-.1-.3l-1.8.7q-.4.2-.6-.2-.1-.2 0-.4l-1 .3q-.5.2-.6-.3h-.65q-.35 0-.95.1-.2.1-.4 0h-.4l-.9.3q-.4.2-.6-.2v-.1q-.6.1-1.1.1Zm687.9 0-.7.1q-.4.1-.5-.1h-1l-1.3.5q-.4.2-.6-.2v-.4h-.3l-1.5.7q-.4.2-.6-.2-.1-.2 0-.4l-1.2.5q-.4.2-.6-.2t.2-.6l1.1-.6-1.5.5-1.8.7q-.4.2-.5-.2h-.2q-.1 0-.8.2-.1.1-.2.1-.4 0-.5-.3-.1-.5.3-.6l.6-.2 1.2-.6 1.4-.6q-.1-.1-.2-.3l-1.3.7-1.6.7-1.6.6q-.4.2-.6-.2t.2-.6l1.7-.7 1.5-.6 1.1-.6q-.1-.3-.25-.55t-.25-.45l-.9.3-1.5.5-1.5.6q-.4.2-.6-.2t.2-.6l1.5-.7h.1l1.5-.4.9-.4v-.2l-.1-.1v-.8l-.6.3v.1l-1.7.4-1.7.6q-.4.1-.6-.3-.1-.4.3-.6l1.8-.5 1.6-.5.9-.5q-.1-.4-.1-.8l-.6.3-1.7.8h-.1l-1.7.4q-.5.1-.6-.3t.3-.5l1.8-.5 1.6-.7 1-.5v-.4q0-.4-.5-.5l-1.5.7-1.7.8q-.4.1-.6-.3t.2-.6l1.7-.7 1.6-.7.8-.3v-1l-.6.2-1.7.6h-.1l-1.4.5q-.4.1-.6-.3-.1-.4.3-.5l1.5-.5 1.7-.7.9-.3v-1.1l-.8.2-1.8.5-1.6.6q-.4.1-.6-.3-.1-.5.3-.6l1.7-.6 1.7-.4 1.1-.4q.1-.3.1-.9l-.7.3-1.5.4-1.7.7q-.4.2-.6-.3-.1-.4.3-.5l1.7-.7h.1l1.4-.5 1-.4q0-.6.1-1l-.6.2-1.7.8h-.1l-1.5.4q-.4.2-.6-.3-.1-.4.3-.5l1.5-.5 1.8-.7.9-.4V56l-.6.2-1.5.6-1.8.7q-.4.1-.6-.3-.1-.4.3-.6l1.7-.6 1.6-.6.9-.4v-.9l-.9.3-1.6.7-1.6.8q-.4.2-.6-.2t.2-.6l1.6-.8 1.6-.7h.1v-.1l1.2-.4q0-.4-.1-1.1l-.5.2-1.6.7-1.7.8q-.4.1-.6-.3t.2-.6l1.7-.7 1.7-.7.8-.4v-.8l-.7.2-1.4.6-1.6.8q-.4.2-.6-.2t.2-.6l1.6-.8 1.4-.7h.1l1-.2v-1.2l-.9.3-1.5.5-1.6.6q-.4.2-.6-.2t.3-.6l1.5-.6V48h.1l1.5-.4 1.2-.5V47q0-.3-.4-.3l-1.7.6-1.8.7q-.4.1-.6-.3-.1-.4.3-.6l1.7-.6 1.8-.7.7-.3v-1.1l-.7.3-1.7.6-1.5.5q-.4.2-.6-.2-.1-.5.3-.6l1.6-.6 1.6-.5 1.1-.5q0-.7-.4-.9l-1.5.7-1.8.7q-.4.1-.6-.3-.1-.4.3-.6l1.7-.6 1.6-.7.8-.3q0-.3.05-.65t.05-.65l-.9.4-1.7.5-1.6.7q-.4.2-.6-.2t.2-.6l1.6-.8h.1l1.7-.5 1.3-.5v-.8l-1 .3-1.6.8-1.5.7q-.4.3-.6-.1t.2-.7l1.5-.7 1.6-.8h.1l1.4-.5v-1.1l-1 .5-1.6.5-1.8.8q-.4.2-.6-.2t.3-.6l1.7-.8h.1l1.6-.6 1.3-.6q.1-.4.1-.8l-1.1.3-1.8.5-1.4.4q-.4.2-.6-.2-.1-.5.3-.6l1.5-.5 1.7-.4 1.4-.4v-1.4l-1.5.5-1.5.5h-.1l-1.7.5q-.5.1-.6-.3-.1-.5.3-.6l1.8-.4 1.5-.6 1.7-.6v-.8l-.8.3-1.7.6-1.7.5q-.4.2-.6-.3-.1-.4.3-.5l1.8-.6 1.6-.6 1.1-.3v-.9l-.9.3-1.6.7-1.5.6q-.4.1-.6-.3-.1-.4.3-.6l1.4-.5 1.7-.7 1.2-.5V27q0-.3.1-.6l-1.3.4-1.4.4-1.6.8q-.4.2-.6-.2t.2-.6l1.6-.8h.1l1.4-.5 1.6-.4v-1.2l-1.5.4-1.8.5-1.5.6q-.4.1-.6-.3-.1-.4.3-.6l1.5-.6h.1l1.7-.4 1.8-.5q.1-.4.1-.8l-1.4.7-1.5.7-1.5.6q-.4.2-.6-.3-.1-.4.3-.5l1.4-.6 1.5-.7 1.8-.9q.1-.6.1-1l-1.5.6-1.6.8-1.8.7q-.4.2-.6-.2t.3-.6l1.7-.8 1.7-.7 1.8-.8v-1l-1.5.7v.1l-1.6.4-1.6.8q-.4.2-.6-.2t.2-.6l1.6-.8h.1l1.6-.5 1.9-.9v-1.2l-1.7.6-1.7.6-1.7.7q-.4.2-.6-.2t.2-.6l1.7-.8h.1l1.7-.6 2-.6q.1-.5.1-1.1l-1.6.5-1.5.7-1.6.6q-.4.1-.6-.3-.1-.4.3-.6l1.5-.5 1.6-.7 1.9-.6v-.9l-1.3.5-1.8.7-1.5.4q-.4.1-.6-.3-.1-.4.3-.5l1.6-.5 1.7-.7 1.6-.6v-.8l-1.5.5-1.8.5-1.7.7q-.4.2-.6-.2t.3-.6l1.7-.7.1-.1 1.7-.4 1.8-.8q0-.7-.1-1l-1.7.6-1.6.7h-.1l-1.5.5q-.4.1-.6-.3-.1-.4.3-.6l1.5-.4 1.6-.8h.1l2.1-.7V6.6l-1.5.6-1.4.6-1.8.6q-.4.2-.6-.2-.1-.4.3-.6l1.7-.7 1.5-.5 1.9-.7v-.5l-.8.2-1.5.4q-.1.1-.2.1l-1.7.6q-.4.2-.6-.2-.1-.5.3-.6l1.7-.7h.1l.4-.1 1.1-.5 1.4-.7q.3-.9 1.1-1.6.5-.6 1.25-.85t1.45-.45h2.4q2 0 4.1.1h.1q5.5.6 11 .7t10.9.4q3.4.2 6.85.05t6.85-.35q.9-.1 1.85-.15t1.85-.05q.9-.1 1.8-.1h2.5q.3-.1.7-.1t.8.1q.7.1 1.35.35t1.25.85q.8.9.9 1.95t.1 2.15q0 .4-.1.5v5.1q.1 1.4.1 2.75v2.65q0 .2.1.5 0 1.2-.15 2.3t-1.05 2.1q-.5.6-1.2.85t-1.5.45q-.4.1-.75.1h-1.45q-.4 0-.9.1l-1.6.5-1.7.6q-.4.2-.6-.2v-.2l-1.2.3q-.3.1-.5-.1l-1.2.6q-.4.2-.6-.2t.2-.6l.9-.4h-.8l-.6.2-1.7.4q-.5.2-.6-.3v-.2l-1.6.7q-.4.2-.6-.2l-.9.4q-.4.2-.6-.2t.3-.6h-.7l-1 .4q-.1.1-.8 0l-1.4.4q-.4.2-.6-.2v-.1l-1.4.4q-.4.2-.6-.2-.1-.3.1-.5l-1.5.5q-.4.2-.6-.2l-1.5.6q-.4.2-.6-.2-.1-.2 0-.4l-1.4.6v2.2h4.3q2.4-.1 4.85-.25t4.85-.25h5.7q.6.1 1.2.1h3.7q1.3-.1 2.4.05t2.1 1.05q1.1 1 1.25 2.25t.25 2.55q0 1.4.1 2.75t.2 2.75q0 .9.1 1.85t.2 1.85v.6q.1.4.1.8v.8q-.2.8-.45 1.5t-.85 1.3q-.6.5-1.3.75t-1.5.35h-.3q-1.2 0-2.8-.1l-1.1.5-1.5.5-1.8.7q-.4.2-.6-.2t.3-.6l.5-.2-.5.2-1.7.6q-.4.2-.6-.2-.1-.4.2-.6l-1 .5q-.5.2-.6-.2l-.2.1-1.7.5q-.4.2-.5-.2 0-.1-.1-.1l-.8.4q-.4.2-.6-.2t.2-.6l1.4-.7.9-.5-1.1.5-1.8.6-1.6.6q-.4.2-.6-.2-.1-.2 0-.4l-1.1.3q-.5.2-.6-.2v-.1l-1.5.6q-.4.2-.6-.2-.1-.4.3-.6l.7-.3-.9.3-1.7.5q-.3.1-.4 0l-1.2.4q-.4.2-.5-.2-.1-.1-.2-.1l-1.5.7q-.4.2-.6-.2-.1.3-.1.6v.2h.4q1.4.1 2.85.2t2.85.2h.1q4.8.7 9.65.7t9.55.3h2.6q1.3 0 2.45.2t2.15 1.1q1 1 1.2 2.35t.2 2.75v1.3q.1 2.1.15 4.25t.05 4.25v.4q0 1.2-.15 2.35t-1.15 2.05q-.6.6-1.3.8t-1.5.4h-.75q-.35 0-.75-.1h-1.7l-1.4.5-1.7.6q-.4.2-.6-.2v-.3l-1.5.4q-.5.2-.6-.3v-.1l-1.5.6q-.5.2-.6-.2-.1-.1-.1-.2l-1.4.6q-.4.2-.6-.2v-.3l-1 .4q-.4.2-.6-.2-.1-.2 0-.4l-1.4.7q-.4.2-.6-.2t.5-.7l-1.7.6q-.3.2-.5-.2l-1.3.5q-.4.2-.6-.2-.1-.2 0-.4l-1.2.6q-.4.2-.6-.2t.2-.6l1.1-.5-1.5.4-1.8.4q-.4.1-.5-.2l-1.1.3q-.3.1-.5-.1l-1.5.4q-.4.2-.5-.3-.1-.4.3-.5l1.7-.5h-.5l-.9.4-1.6.4q-.4.2-.5-.3-.1-.1-.4 0l-1.5.4q-.4.2-.6-.3v-.1l-1.3.3q-.4.1-.6-.2l-.9.4q-.4.2-.6-.2-.1-.2 0-.3l-1.4.7q-.4.2-.6-.2-.1-.1-.1-.3l-1.8.7q-.4.2-.6-.2-.1-.2 0-.4l-1 .3q-.5.2-.6-.3h-.65q-.35 0-.95.1-.2.1-.4 0h-.4l-.9.3q-.4.2-.6-.2v-.1q-.6.1-1.1.1Zm-630.1-1.8.9-.5-.15-.05q-.15-.05-.55.05h-.1v.1l-1.7.4-1.8.8-1.6.5q-.5.2-.6-.2-.1-.5.3-.6l1.6-.6 1.7-.7h.1v-.1l2-.5q-.2-.4-.4-.65t-.6-.55l-1.5.6-1.7.5-1.7.4q-.5.2-.6-.3-.1-.4.3-.5l1.8-.5 1.6-.4 1.4-.6q.1 0 .5-.1-.1-.4-.1-.9l-1.4.7-1.5.7h-.1l-1.5.5q-.4.1-.6-.3-.1-.4.3-.6l1.5-.4 1.5-.7 1.5-.7q0-.1.3-.2v-.9h-.1l-1.6.6-1.4.6-1.5.7q-.4.2-.6-.2t.2-.6l1.5-.8 1.5-.5v-.1l2-.7v-.9h-.1l-1.7.4-1.7.5-1.5.7q-.4.1-.6-.3t.2-.6l1.5-.6.1-.1 1.7-.4 2.1-.6v-1h-.1l-1.6.5-1.5.6-1.8.7q-.4.2-.6-.3-.1-.4.3-.5l1.7-.7 1.6-.7 2-.6v-1.1l-1.5.6-1.7.7-1.6.7q-.4.2-.6-.2t.2-.6l1.6-.7v-.1l1.8-.6 1.5-.7q.1 0 .3-.1v-.8h-.1l-1.7.5-1.6.4-1.7.7q-.4.2-.6-.3-.1-.4.3-.5l1.7-.7h.1l1.5-.5 2.1-.6v-.9l-1.2.5-1.7.8-1.6.5q-.4.2-.6-.2-.1-.5.3-.6l1.5-.6 1.8-.7 1.5-.6v-1.1l-1.4.5-1.6.8-1.6.6q-.4.1-.6-.3-.1-.4.3-.6l1.5-.5 1.6-.8h.1l1.7-.6q-.1-.5-.1-.9l-1.3.5-1.6.5-1.6.5q-.4.2-.6-.3-.1-.4.3-.5l1.7-.6 1.5-.5 1.6-.6v-1.3l-1.5.4-1.7.8-1.8.7q-.4.1-.6-.3-.1-.4.3-.6l1.7-.6 1.8-.8 1.8-.6v-.9l-1.2.5-1.7.5-1.7.8q-.4.2-.6-.2t.2-.6l1.7-.8h.1l1.7-.6 1.5-.5v-1.1l-1.6.4-1.6.5-1.7.7q-.4.2-.6-.2t.2-.6l1.7-.7v-.1h.1l1.6-.4 1.9-.6q0-.4.1-.8l-1.5.6-1.5.7-1.8.7q-.4.1-.6-.3-.1-.4.3-.6l1.7-.6 1.5-.8h.1l1.8-.7q0-.5.1-1.1l-1.4.5-1.5.7h-.1l-1.7.5q-.4.2-.6-.3-.1-.4.3-.5l1.7-.6 1.6-.6 1.7-.7v-.5q0-.3-.1-.4l-1.6.6-1.5.6-1.8.7q-.4.1-.6-.3-.1-.4.3-.6l1.7-.6 1.6-.6 1.5-.7.6-.2q0-.8-.3-1.1l-1.7.8-1.6.6-1.5.5q-.4.2-.6-.2-.1-.5.3-.6l1.5-.6 1.6-.6 1.7-.7h.1l.6-.2q0-.6-.3-.8l-1.7.6-1.5.6-1.7.8q-.4.1-.6-.3t.2-.6l1.7-.7 1.6-.6 1.6-.7h.1l.7-.2q0-.6-.1-.8h-.1l-1.5.5-1.5.6h-.1l-1.7.5q-.5.1-.6-.3t.3-.6l1.8-.4 1.5-.7 2-.6q0-.7-.1-1v.1h-.1l-1.6.4-1.4.6-1.8.7q-.4.2-.6-.2t.3-.6l1.7-.8 1.5-.5 2.1-.7q0-.7-.2-1l-1.6.6-1.6.4-1.7.8q-.4.2-.6-.2t.2-.6l1.7-.8h.1l1.6-.5 2-.7q0-.8-.4-1.1l-1.5.7-1.6.6-1.4.4q-.4.2-.6-.3-.1-.4.3-.5l1.5-.5 1.5-.5 1.5-.7h.1l.5-.2v-.7l-1.6.5v.1l-1.7.4-1.7.5q-.5.1-.6-.3-.1-.5.3-.6l1.8-.5 1.6-.4 1.7-.7q0-.4-.1-.8l-1.4.7-1.6.6-1.5.5q-.4.2-.6-.2-.1-.5.3-.6l1.5-.6 1.6-.6 1.6-.7v-.2q-.1-.5-.1-1l-1.3.4-1.4.8-1.6.7q-.4.2-.6-.2t.2-.6l1.6-.7 1.4-.8h.1l1.5-.5v-1.2l-1.3.4-1.8.5-1.7.5q-.5.1-.6-.3t.3-.6l1.8-.4 1.7-.6 1.5-.4v-.7l-1 .3-1.7.7-1.6.5q-.4.2-.6-.2-.1-.4.3-.6l1.5-.6 1.8-.6 1.2-.4v-.9l-.8.3-1.5.7-1.5.6q-.4.1-.6-.3-.1-.4.3-.6l1.4-.5 1.6-.7 1-.5v-1.3l-.9.3-1.4.8-1.7.7q-.4.2-.6-.2t.2-.6l1.7-.8 1.4-.7h.1V16l1.2-.3v-.8l-1 .2-1.5.6-1.7.7q-.4.1-.6-.3-.1-.4.3-.6l1.6-.6 1.6-.6 1.2-.3v-1.2l-.6.3-1.5.5-1.6.7q-.4.2-.6-.2t.3-.6l1.5-.7 1.6-.6 1-.3v-1l-.8.4-1.7.8-1.6.7q-.4.2-.6-.2t.2-.6l1.6-.7 1.7-.8 1.2-.6V8.8l-.7.3-1.5.4-1.6.5q-.5.1-.6-.3t.3-.6l1.7-.4 1.4-.5 1.1-.4q0-.1-.1-.4V7l-.5.2-1.4.5-1.5.6q-.4.2-.6-.2t.2-.6l1.5-.7h.1l1.4-.4.9-.3q0-.2.1-.3.1-.4-.2-.5l-1.4.6-1.6.5q-.4.2-.6-.3-.1-.4.3-.5l1.2-.5q0-.2.3-.3l1.8-.6.8-.2q.3-.6.7-1 1.1-1.1 2.45-1.3t2.75-.2q3.6-.3 7.2-.45t7.1-.05q.6 0 1.1.05t1 .05q1.4 0 2.75.15t2.45 1.25 1.25 2.45.25 2.65q.1 3 .1 6-.1 4-.3 8t-.5 8q-.2 3.4-.15 6.85t.15 6.85q.1 2 .15 3.95t.05 3.95v.3h.4q1.4 0 2.85-.1t2.85-.2q3.8-.5 7.9-.5t7.9.1h2.6q1.2.1 2.4.25t2.2 1.15q.9 1 1.05 2.15t.15 2.45v.4q.1 2.4.1 4.8t.1 4.8q0 .4.05.7t.05.7q.1.6.1 1.3t-.1 1.4q-.6 3.3-3.9 3.9-.7.1-1.4.1t-1.4-.1h-1l-1.6.5-1.5.5q-.4.2-.6-.2v-.2l-1.2.4q-.4.2-.6-.2l-1.4.4q-.4.2-.6-.2-.1-.5.3-.6l1.6-.5h-.9l-.6.2-1.5.5q-.1.1-.2.1t-.3.1l-1.5.6q-.5.2-.6-.2-.2-.4.2-.6l1.6-.7h-.4l-1.3.6-1.7.5q-.4.2-.6-.2v-.1l-1.4.4q-.5.2-.6-.2v-.2l-.9.4q-.5.2-.6-.2-.2-.3.1-.5l-1.6.6q-.4.2-.6-.2t.3-.6l.6-.3h-.2l-.8.3-1.7.6q-.5.2-.6-.2v-.1l-1.2.5q-.4.2-.6-.2v-.4l-1.5.4q-.4.1-.5-.1l-1.1.5q-.4.2-.6-.2-.2-.3 0-.5l-1.4.4q-.4.2-.6-.3 0-.2-.2-.2l-1.5.6q-.4.2-.6-.2l-.9.2q-.4.2-.6-.3-.1-.3.2-.5l-1.5.4q-.1.1-.5.1l-1.7.6q-.5.2-.6-.2-.2-.4.2-.6l.2-.1-1.5.4q-.4.2-.6-.3v-.2l-1.6.5q-.3.1-.5-.1l-1.3.5q-.4.2-.5-.2-.2-.4.2-.6l1.2-.5h-.2l-1.1.6-1.7.6q-.4.2-.6-.2v-.1l-1 .3q-.4.2-.5-.2-.1-.1 0-.2l-1.7.7q-.4.2-.6-.2-.1-.3.1-.5l-1.5.5q-.5.2-.6-.2-.1-.5.3-.6l1.6-.6.9-.3-.9.2-1.5.5-1.9.7-1.8.7q-.4.2-.6-.2-.1-.4.2-.6 0-.3.2-.4l1.5-.7zm154.6 0 .9-.5-.15-.05q-.15-.05-.55.05h-.1v.1l-1.7.4-1.8.8-1.6.5q-.5.2-.6-.2-.1-.5.3-.6l1.6-.6 1.7-.7h.1v-.1l2-.5q-.2-.4-.4-.65t-.6-.55l-1.5.6-1.7.5-1.7.4q-.5.2-.6-.3-.1-.4.3-.5l1.8-.5 1.6-.4 1.4-.6q.1 0 .5-.1-.1-.4-.1-.9l-1.4.7-1.5.7h-.1l-1.5.5q-.4.1-.6-.3-.1-.4.3-.6l1.5-.4 1.5-.7 1.5-.7q0-.1.3-.2v-.9h-.1l-1.6.6-1.4.6-1.5.7q-.4.2-.6-.2t.2-.6l1.5-.8 1.5-.5v-.1l2-.7v-.9h-.1l-1.7.4-1.7.5-1.5.7q-.4.1-.6-.3t.2-.6l1.5-.6.1-.1 1.7-.4 2.1-.6v-1h-.1l-1.6.5-1.5.6-1.8.7q-.4.2-.6-.3-.1-.4.3-.5l1.7-.7 1.6-.7 2-.6v-1.1l-1.5.6-1.7.7-1.6.7q-.4.2-.6-.2t.2-.6l1.6-.7v-.1l1.8-.6 1.5-.7q.1 0 .3-.1v-.8h-.1l-1.7.5-1.6.4-1.7.7q-.4.2-.6-.3-.1-.4.3-.5l1.7-.7h.1l1.5-.5 2.1-.6v-.9l-1.2.5-1.7.8-1.6.5q-.4.2-.6-.2-.1-.5.3-.6l1.5-.6 1.8-.7 1.5-.6v-1.1l-1.4.5-1.6.8-1.6.6q-.4.1-.6-.3-.1-.4.3-.6l1.5-.5 1.6-.8h.1l1.7-.6q-.1-.5-.1-.9l-1.3.5-1.6.5-1.6.5q-.4.2-.6-.3-.1-.4.3-.5l1.7-.6 1.5-.5 1.6-.6v-1.3l-1.5.4-1.7.8-1.8.7q-.4.1-.6-.3-.1-.4.3-.6l1.7-.6 1.8-.8 1.8-.6v-.9l-1.2.5-1.7.5-1.7.8q-.4.2-.6-.2t.2-.6l1.7-.8h.1l1.7-.6 1.5-.5v-1.1l-1.6.4-1.6.5-1.7.7q-.4.2-.6-.2t.2-.6l1.7-.7v-.1h.1l1.6-.4 1.9-.6q0-.4.1-.8l-1.5.6-1.5.7-1.8.7q-.4.1-.6-.3-.1-.4.3-.6l1.7-.6 1.5-.8h.1l1.8-.7q0-.5.1-1.1l-1.4.5-1.5.7h-.1l-1.7.5q-.4.2-.6-.3-.1-.4.3-.5l1.7-.6 1.6-.6 1.7-.7v-.5q0-.3-.1-.4l-1.6.6-1.5.6-1.8.7q-.4.1-.6-.3-.1-.4.3-.6l1.7-.6 1.6-.6 1.5-.7.6-.2q0-.8-.3-1.1l-1.7.8-1.6.6-1.5.5q-.4.2-.6-.2-.1-.5.3-.6l1.5-.6 1.6-.6 1.7-.7h.1l.6-.2q0-.6-.3-.8l-1.7.6-1.5.6-1.7.8q-.4.1-.6-.3t.2-.6l1.7-.7 1.6-.6 1.6-.7h.1l.7-.2q0-.6-.1-.8h-.1l-1.5.5-1.5.6h-.1l-1.7.5q-.5.1-.6-.3t.3-.6l1.8-.4 1.5-.7 2-.6q0-.7-.1-1v.1h-.1l-1.6.4-1.4.6-1.8.7q-.4.2-.6-.2t.3-.6l1.7-.8 1.5-.5 2.1-.7q0-.7-.2-1l-1.6.6-1.6.4-1.7.8q-.4.2-.6-.2t.2-.6l1.7-.8h.1l1.6-.5 2-.7q0-.8-.4-1.1l-1.5.7-1.6.6-1.4.4q-.4.2-.6-.3-.1-.4.3-.5l1.5-.5 1.5-.5 1.5-.7h.1l.5-.2v-.7l-1.6.5v.1l-1.7.4-1.7.5q-.5.1-.6-.3-.1-.5.3-.6l1.8-.5 1.6-.4 1.7-.7q0-.4-.1-.8l-1.4.7-1.6.6-1.5.5q-.4.2-.6-.2-.1-.5.3-.6l1.5-.6 1.6-.6 1.6-.7v-.2q-.1-.5-.1-1l-1.3.4-1.4.8-1.6.7q-.4.2-.6-.2t.2-.6l1.6-.7 1.4-.8h.1l1.5-.5v-1.2l-1.3.4-1.8.5-1.7.5q-.5.1-.6-.3t.3-.6l1.8-.4 1.7-.6 1.5-.4v-.7l-1 .3-1.7.7-1.6.5q-.4.2-.6-.2-.1-.4.3-.6l1.5-.6 1.8-.6 1.2-.4v-.9l-.8.3-1.5.7-1.5.6q-.4.1-.6-.3-.1-.4.3-.6l1.4-.5 1.6-.7 1-.5v-1.3l-.9.3-1.4.8-1.7.7q-.4.2-.6-.2t.2-.6l1.7-.8 1.4-.7h.1V16l1.2-.3v-.8l-1 .2-1.5.6-1.7.7q-.4.1-.6-.3-.1-.4.3-.6l1.6-.6 1.6-.6 1.2-.3v-1.2l-.6.3-1.5.5-1.6.7q-.4.2-.6-.2t.3-.6l1.5-.7 1.6-.6 1-.3v-1l-.8.4-1.7.8-1.6.7q-.4.2-.6-.2t.2-.6l1.6-.7 1.7-.8 1.2-.6V8.8l-.7.3-1.5.4-1.6.5q-.5.1-.6-.3t.3-.6l1.7-.4 1.4-.5 1.1-.4q0-.1-.1-.4V7l-.5.2-1.4.5-1.5.6q-.4.2-.6-.2t.2-.6l1.5-.7h.1l1.4-.4.9-.3q0-.2.1-.3.1-.4-.2-.5l-1.4.6-1.6.5q-.4.2-.6-.3-.1-.4.3-.5l1.2-.5q0-.2.3-.3l1.8-.6.8-.2q.3-.6.7-1 1.1-1.1 2.45-1.3t2.75-.2q3.6-.3 7.2-.45t7.1-.05q.6 0 1.1.05t1 .05q1.4 0 2.75.15t2.45 1.25 1.25 2.45.25 2.65q.1 3 .1 6-.1 4-.3 8t-.5 8q-.2 3.4-.15 6.85t.15 6.85q.1 2 .15 3.95t.05 3.95v.3h.4q1.4 0 2.85-.1t2.85-.2q3.8-.5 7.9-.5t7.9.1h2.6q1.2.1 2.4.25t2.2 1.15q.9 1 1.05 2.15t.15 2.45v.4q.1 2.4.1 4.8t.1 4.8q0 .4.05.7t.05.7q.1.6.1 1.3t-.1 1.4q-.6 3.3-3.9 3.9-.7.1-1.4.1t-1.4-.1h-1l-1.6.5-1.5.5q-.4.2-.6-.2v-.2l-1.2.4q-.4.2-.6-.2l-1.4.4q-.4.2-.6-.2-.1-.5.3-.6l1.6-.5h-.9l-.6.2-1.5.5q-.1.1-.2.1t-.3.1l-1.5.6q-.5.2-.6-.2-.2-.4.2-.6l1.6-.7h-.4l-1.3.6-1.7.5q-.4.2-.6-.2v-.1l-1.4.4q-.5.2-.6-.2v-.2l-.9.4q-.5.2-.6-.2-.2-.3.1-.5l-1.6.6q-.4.2-.6-.2t.3-.6l.6-.3h-.2l-.8.3-1.7.6q-.5.2-.6-.2v-.1l-1.2.5q-.4.2-.6-.2v-.4l-1.5.4q-.4.1-.5-.1l-1.1.5q-.4.2-.6-.2-.2-.3 0-.5l-1.4.4q-.4.2-.6-.3 0-.2-.2-.2l-1.5.6q-.4.2-.6-.2l-.9.2q-.4.2-.6-.3-.1-.3.2-.5l-1.5.4q-.1.1-.5.1l-1.7.6q-.5.2-.6-.2-.2-.4.2-.6l.2-.1-1.5.4q-.4.2-.6-.3v-.2l-1.6.5q-.3.1-.5-.1l-1.3.5q-.4.2-.5-.2-.2-.4.2-.6l1.2-.5h-.2l-1.1.6-1.7.6q-.4.2-.6-.2v-.1l-1 .3q-.4.2-.5-.2-.1-.1 0-.2l-1.7.7q-.4.2-.6-.2-.1-.3.1-.5l-1.5.5q-.5.2-.6-.2-.1-.5.3-.6l1.6-.6.9-.3-.9.2-1.5.5-1.9.7-1.8.7q-.4.2-.6-.2-.1-.4.2-.6 0-.3.2-.4l1.5-.7zm-19.8-3-1.6.7-.6.2q-.5.2-1 .5t-.9.5q0 .1-.2.1l-.1.1q-1.4.4-3 .8l-.6.2q-.2.1-.6.1l-1.5.5q-.3.1-.5-.2l-1.5.5q-.2 0-.5-.2l-1.5.6q-.4.1-.6-.2l-1.3.7q-.4.2-.6-.2-.1-.1-.1-.25V75v.1l-1.7.4q-.3.1-.5-.2l-1.5.8q-.4.2-.6-.2-.1-.2-.1-.3l-1.1.4q-.4.2-.6-.2-.1-.4.3-.6l1.1-.5-1.2.4-1.5.6q-.4.2-.6-.2-.1-.2 0-.4l-1.5.6q-.4.2-.6-.2v-.1l-1.5.7q-.4.2-.6-.2-.1-.2 0-.4l-1.3.4q-.4.2-.6-.2-.1-.5.3-.6l.7-.3q-.1 0-.5.2l-1.5.5q-.4.2-.5-.2l-1.4.6q-.4.2-.6-.2-.1-.3.1-.5l-1.2.3q-.5.2-.6-.3l-.2.1-1.4.4q-.3.1-.5-.1l-1.2.6q-.4.2-.6-.2-.1-.2.1-.4l-1.3.3q-.4.2-.6-.3l-.1.1-1.7.6q-.4.2-.6-.2-.1-.4.3-.6l.7-.3q-.1 0-.5.2l-1.8.6q-.4.2-.6-.2v-.1l-1.1.2q-.5.2-.6-.3 0-.2.1-.4h-.4l-1.1.4q-.4.2-.6-.2l-.7.2q-.4.2-.6-.2 0-.1-.3 0l-1.7.6q-.4.2-.6-.2-.1-.2 0-.4l-.7.3q-.4.2-.6-.2v-.3l-1.6.4q-.5.2-.6-.3-.2-.4.2-.6l1.5-.7v-.1h.1l1.5-.4v-.1l.6-.1q0-.1-.4-.1l-1.5.6-1.8.6-1.6.6q-.4.2-.6-.2t.2-.6l1.7-.7 1.8-.5 1.6-.7q-.1-.3-.25-.55t-.25-.55l-1.5.4-1.4.7-1.6.6q-.4.2-.6-.2t.3-.6l1.5-.7 1.4-.6h.1l1.6-.5q-.1-.3-.2-.7l-1 .5-1.5.5-1.6.6q-.4.1-.6-.3-.1-.4.3-.6l3.1-1.1 1.3-.5q-.1-.4-.1-1.1v-.3l-1.3.4-1.7.7-1.5.7q-.4.2-.6-.2t.2-.6l1.5-.8 1.8-.6q-.1 0 0-.1l1.6-.4v-.7l-1.4.5-1.5.8-1.6.8q-.4.2-.6-.3-.2-.4.2-.6l3.1-1.5h.1l1.6-.6q-.1-.3-.1-.6v-.6l-.9.4-1.7.5-1.7.8q-.4.2-.6-.2t.2-.6l1.7-.8h.1l1.7-.6 1.1-.4q0-.4-.1-.8l-.6.3-3.3 1.3q-.4.2-.6-.2-.1-.4.3-.6l1.6-.7 1.7-.6.9-.4q0-.4-.1-.8v-.5l-.7.3-1.7.6-1.7.7q-.4.2-.6-.3-.1-.4.3-.5l1.6-.7 1.8-.7 1-.3v-.7l-.7.3-1.5.5-1.7.5q-.4.2-.6-.3-.1-.4.3-.5l1.8-.6 1.4-.4 1-.5q.1-.4.1-1l-.8.3-1.6.8-1.6.6q-.4.1-.6-.3-.1-.4.3-.6l1.5-.5 1.6-.8 1.2-.5q0-.8.1-1.2l-.8.3-1.4.6-1.7.8q-.4.2-.6-.2t.2-.6l1.7-.8 1.4-.6h.1v-.1l1.1-.3v-1.2l-.8.3-1.7.8-1.6.6q-.4.1-.6-.3-.1-.4.3-.6l1.5-.5 1.8-.8 1.1-.4V50l-.7.2-1.7.6-1.8.8q-.4.2-.6-.2t.3-.6l1.7-.8 1.8-.7.9-.3v-.8l-.9.2-1.4.8-1.7.7q-.4.2-.6-.2t.2-.6l1.7-.7 1.4-.8h.1l1.2-.3v-1.1l-1.1.3-1.6.4-1.6.7q-.4.2-.6-.3-.1-.4.3-.5l1.6-.7h.1l1.5-.5 1.4-.3q0-.5-.5-.5l-1.7.8-1.6.7q-.4.2-.6-.2t.2-.6l1.6-.8 1.7-.7.9-.5v-.2q0-.6.1-1.2l-1.1.4-1.8.7-1.4.5q-.4.1-.6-.3-.1-.4.3-.6l1.5-.4 1.7-.7 1.5-.6q0-.4.1-.8l-1.1.4-1.4.6-1.8.8q-.4.2-.6-.2t.3-.6l1.7-.8 1.4-.6h.1v-.1l1.5-.5q0-.4.05-.7t.05-.6l-1.4.4-1.6.5-1.6.7q-.4.1-.6-.3-.1-.4.3-.6l1.6-.6.1-.1 1.5-.4 1.7-.6h.1q.1-.5.1-.9l-1.3.7-1.4.5h-.1l-1.4.5q-.4.1-.6-.3-.1-.4.3-.6l1.4-.4 1.5-.6 1.5-.7.2-.1v-1l-1.7.5-1.4.7-1.5.7q-.4.2-.6-.2t.2-.6l1.5-.7 1.4-.7h.1l2.1-.7q0-.8-.1-1.1l-1.5.6-1.5.8-1.6.8q-.4.2-.6-.2t.2-.6l1.6-.8 1.5-.8 1.5-.6q.1-.1.6-.2 0-.5-.1-.7l-1.5.6-1.8.5-1.7.7q-.4.2-.6-.2t.3-.6l1.7-.8h.1l1.7-.5 1.9-.7q0-.3-.05-.65t-.35-.55l-1.6.6-1.4.7-1.6.7q-.4.1-.6-.3t.3-.6l1.5-.6 1.5-.7 1.6-.7h.1l.6-.1q-.1-.5-.1-1l-1.6.6-1.5.5-1.7.8q-.4.2-.6-.2t.2-.6l1.7-.8 1.6-.6 1.9-.6v-.1q0-.5-.1-.7l-1.5.6-1.4.7h-.1l-1.6.5q-.5.1-.6-.3-.1-.5.3-.6l1.6-.5 1.4-.6 2-.9q0-.5-.1-1l-1.4.6-1.8.4-1.6.5q-.5.1-.6-.3t.3-.6l1.7-.4 1.7-.5 1.7-.6v-.9l-1.7.7-1.7.8-1.6.7q-.4.2-.6-.2t.2-.6l1.6-.8 1.8-.7 2-.9q0-.7-.1-1.1l-1.7.5-1.7.7-1.6.6q-.4.1-.6-.3-.1-.4.3-.6l1.5-.5 1.8-.8 2.1-.6q-.1-.3-.1-.8l-1.4.8-1.5.7h-.1l-1.6.4q-.5.2-.6-.3-.1-.4.3-.5l1.6-.5 1.5-.6 1.5-.8.3-.1v-1.2l-1.7.7-1.5.6-1.7.6q-.4.1-.6-.3-.1-.4.3-.6l1.7-.5 1.5-.6 1.7-.8h.2v-1.1l-1.4.5-1.5.7-.1.1-1.6.4q-.5.1-.6-.3t.3-.5l1.6-.5 1.5-.7h.1v-.1l1.5-.5h.1l.1-.1q-.1-.4-.1-.8l-1.5.6-1.7.5-1.4.6q-.4.1-.6-.3-.1-.4.3-.6l1.4-.6h.1l1.6-.4 1.8-.7v-.9l-1.3.4-1.7.7-1.8.7q-.4.2-.6-.3-.1-.4.3-.5l1.7-.7 1.8-.8 1.6-.5v-.1q-.1-.7-.1-1l-1.4.6-1.4.6h-.1l-1.5.4q-.4.2-.6-.3-.1-.4.3-.5l1.6-.5 1.4-.5 1.7-.8h.1q0-.2.1-.4l-.6.2-1.5.6-1.8.8q-.4.2-.6-.2t.3-.6l1.6-.7-.1-.1q-.1-.5.3-.6l1.6-.6 1.6-.7q.1-.2.3-.4 1-1 2.15-1.15t2.45-.15h.5q2.1-.1 4.2-.15t4.2-.05q1.8-.1 3.55-.1h8.55q2.5 0 4.9-.1 1.9-.2 5.55-.1t7.75.6 7.5 1.35 4.8 2.15q2.9 1.8 4.8 4.2 2.1 2.5 3 5.95t1.4 6.55q.3 2.4.1 4.75t-1.3 4.55q-1.5 2.8-4.1 5 1.8 1 3.3 2.5 2.3 2.2 3.85 5.8t1.35 6.8q-.1 3.6-1.2 6.8-.7 2.1-1.8 3.9l-.1.1-.1.2q-2.3 2.3-5.35 4.25t-6.15 3.65q0 .3-.3.4Zm116.1 5-1.7.4-1.7.5q-.2.1-.35 0t-.35-.2h-.1l-1.6.5q-.3.1-.5-.1l-.9.4q-.4.2-.6-.2V77q-.2 0-.3-.3-.1-.4.3-.5l2-.7h-1.2l-1.4.7h-.1l-1.7.7q-.4.1-.6-.3t.3-.6l1.3-.4-1.4.3-1.5.6q-.4.1-.6-.3l-1.8.7q-.4.2-.6-.2-.1-.4.3-.6l1.7-.7 1-.5q-.2 0-.5-.05t-.7-.05l-1.7.6-1.4.6q-.5.1-.6-.3-.2-.4.2-.6l1.5-.5.6-.3h-.1l-.7.3-1.7.6-1.6.6q-.4.1-.6-.3-.1-.3.2-.5l-1.2.4q-.4.1-.6-.3-.1-.4.3-.6l1.6-.5 1.5-.8h.1q-.1-.1-.2-.1l-1.5.7-1.6.5-1.5.7q-.4.2-.6-.2t.2-.6l1.5-.7h.1l1.6-.6.8-.3q-.3-.2-.55-.35t-.55-.25l-1.7.7h-.1l-1.7.4-1.7.8q-.4.2-.6-.2-.2-.5.2-.6l1.8-.8 1.8-.5 1.1-.4q-.3-.1-.8 0l-1.5.5-1.6.7-1.4.7q-.4.1-.6-.3t.2-.6l1.4-.6h.1l1.6-.7 1.3-.5q-.4-.2-.7-.4l-.8.3-1.6.7-1.6.4-1.7.8q-.4.2-.6-.2t.2-.6l1.8-.8h.1l1.5-.5 1.8-.7q-.5-.3-.9-.7l-.6.2-1.5.5-1.6.5-1.5.6q-.4.2-.6-.2-.1-.5.3-.6l1.5-.6 1.6-.6 1.5-.4-.8-.6-.8.2-1.7.7-1.4.5-1.8.6q-.4.1-.5-.3-.2-.4.3-.6l1.7-.5 1.4-.6 1.7-.6V67h.3q-.4-.3-.7-.6l-.6.1-1.4.7-1.5.6-1.4.4q-.5.2-.6-.3-.1-.4.3-.5l1.4-.5 1.4-.5 1.5-.7h.1q-.1-.2-.3-.3l-.4-.4-.6.2-1.6.7-1.6.5-1.6.4q-.4.2-.6-.3-.1-.4.4-.5l1.6-.5 1.5-.4 1.9-.9-.6-.8-.6.3h-.1l-1.7.6-1.7.8-1.7.6q-.4.2-.6-.2-.1-.5.3-.6l1.6-.7 1.8-.7v-.1l2.2-.8-.6-1-1 .4-1.6.5-1.6.4-1.4.7q-.4.2-.6-.2t.2-.6l1.4-.7h.1l1.7-.5 1.5-.4.9-.5-.4-1-1 .5-1.6.5-1.5.8-1.6.7q-.4.1-.5-.3-.2-.4.2-.6l1.5-.6 1.6-.8 1.5-.5 1-.5-.4-1.2-1.3.6-1.7.7-1.4.8h-.1l-1.5.5q-.5.1-.6-.3t.3-.6l1.5-.4 1.4-.8 1.8-.7 1.3-.6-.4-1.2-1 .3-1.5.8-1.6.5-1.7.7q-.4.2-.6-.2t.2-.6l1.8-.8h.1l1.5-.4 1.5-.8 1.1-.4q-.2-.4-.4-1.1l-1 .3-1.6.6-1.5.7-1.4.8q-.4.2-.6-.2t.2-.6l1.4-.8 1.5-.7v-.1l1.7-.5 1.1-.4q-.2-.6-.3-1l-.8.3-1.6.7h-.1v.1l-1.7.4-1.6.6q-.4.1-.6-.3-.1-.4.3-.6l1.6-.5 1.7-.5 1.6-.7v-.1h.1l.8-.3q-.1-.5-.2-1.1l-.9.4-1.7.7-1.6.5v.1l-1.7.4q-.4.1-.5-.3t.3-.5l1.6-.5 1.5-.6 1.8-.6 1-.5q-.1-.7-.5-.9l-.1.1-1.5.4-1.6.7h-.1l-1.6.4q-.5.2-.6-.3-.1-.4.3-.5l1.7-.5 1.6-.6 1.5-.5.7-.3q-.1-.7-.1-1.5l-.6.1-1.4.8-1.5.7-1.8.5q-.4.2-.5-.3-.2-.4.2-.5l1.8-.6 1.4-.6 1.4-.8h.1l.8-.2q0-.8-.4-1l-1.6.4-1.6.6-1.6.5q-.4.2-.6-.2-.1-.5.3-.6l1.6-.6 1.6-.5 1.6-.5.7-.2q0-.4-.05-.7t-.35-.5l-1.7.4-1.7.7-1.8.6q-.4.1-.5-.3-.2-.5.3-.6l1.7-.5 1.6-.7h.1l1.7-.5.6-.2q0-.3-.1-.6t-.4-.5l-1.8.5-1.5.6-1.5.5q-.4.1-.5-.3-.2-.4.3-.6l1.4-.4 1.5-.7h.1l1.7-.5.6-.1q-.1-.7-.2-1l-1.5.7-1.7.5-1.5.7q-.4.2-.6-.3-.2-.4.2-.5l1.6-.7 1.6-.6 1.9-.8q0-.6-.1-1l-1.2.5-1.6.5-1.4.5q-.5.1-.6-.3t.3-.5l1.4-.5 1.6-.6 1.4-.5q0-.6-.1-1.2l-1 .5-1.4.6-1.4.6q-.5.2-.6-.2-.2-.4.2-.6l1.5-.7 1.4-.5 1.3-.6q-.1-.6-.1-1.1l-.8.4-1.7.8h-.1l-1.6.4q-.5.2-.6-.3-.1-.4.3-.5l1.6-.5 1.7-.7 1.2-.6v-1.4l-.5.2-1.8.6-1.5.7q-.4.2-.6-.2t.2-.6l1.6-.7v-.1l1.8-.5.9-.4v-.1q0-.4.1-.9l-.9.3-1.8.8-1.7.8q-.4.1-.6-.3t.2-.6l1.8-.7 1.7-.8 1.4-.6.2-1.2-.9.3-1.5.6-1.6.8q-.4.2-.6-.2t.2-.6l1.7-.8 1.4-.7h.1l1.4-.4q.2-.5 0-.7l-1.5.8-1.8.8q-.4.1-.6-.3-.1-.4.3-.6l1.7-.7 1.5-.8h.1l.8-.3q.2-.5 0-.6l-1.5.4-1.5.7q-.4.2-.6-.3-.2-.4.3-.5l1.5-.7h.1l1.4-.5 1-.4q0-.2.1-.4l-1.5.6-1.5.5q-.4.1-.6-.3-.1-.5.3-.6l1.5-.5 1.6-.6.7-.3q.2-.3.3-.6l-1.2.3-1.5.5q-.5.1-.6-.3t.3-.6l1.6-.4 1.5-.5.6-.2q.1-.2.3-.5l-1.1.4-1.4.4q-.5.2-.6-.3-.1-.4.3-.5l1.4-.5 1.3-.4-1.5.5q-.4.1-.6-.3-.1-.5.3-.6l1.2-.4h-.1q-.2-.4.2-.6l1.5-.7 1.5-.7 1-.4.4-.4-1.4.7-1.5.6q-.4.2-.6-.2t.2-.6l2-.8q.1-.2.2-.2l1.5-.6 1.3-.5q.2-.2.2-.3l-1.6.8q-.4.2-.6-.2t.2-.6l1.4-.7q0-.4.4-.5l1.7-.4 1.3-.8h.2q.6-.5 1.2-.9h.1v-.1q1.8-1 3.75-1.75t3.95-1.35q3-1.4 7.3-1.8t7.6-.2h2.5q2.9.1 5.95.3t5.55 1.4l.2.2.2.1q4.6 4.6 9.15 9.7t8.55 10.2l.1.2.1.1q1.2 2.7 1.35 6.2t.15 6.9q-.1 1.1-.1 2.15t.1 2.05q0 2-.1 5.1t-.55 6.5-1.3 6.2-2.35 4.3q-3.2 3.2-7.25 5.9t-7.85 5.1h-.1v.1q-1.8.9-4.15 1.4t-5.05.8l-1.7.6q-.4.1-.5-.3-.1-.2 0-.4-.3.1-.6.1l-1 .2q-.2.1-.35.05l-.45-.15zm219 0-1.7.4-1.7.5q-.2.1-.35 0t-.35-.2h-.1l-1.6.5q-.3.1-.5-.1l-.9.4q-.4.2-.6-.2V77q-.2 0-.3-.3-.1-.4.3-.5l2-.7h-1.2l-1.4.7h-.1l-1.7.7q-.4.1-.6-.3t.3-.6l1.3-.4-1.4.3-1.5.6q-.4.1-.6-.3l-1.8.7q-.4.2-.6-.2-.1-.4.3-.6l1.7-.7 1-.5q-.2 0-.5-.05t-.7-.05l-1.7.6-1.4.6q-.5.1-.6-.3-.2-.4.2-.6l1.5-.5.6-.3h-.1l-.7.3-1.7.6-1.6.6q-.4.1-.6-.3-.1-.3.2-.5l-1.2.4q-.4.1-.6-.3-.1-.4.3-.6l1.6-.5 1.5-.8h.1q-.1-.1-.2-.1l-1.5.7-1.6.5-1.5.7q-.4.2-.6-.2t.2-.6l1.5-.7h.1l1.6-.6.8-.3q-.3-.2-.55-.35t-.55-.25l-1.7.7h-.1l-1.7.4-1.7.8q-.4.2-.6-.2-.2-.5.2-.6l1.8-.8 1.8-.5 1.1-.4q-.3-.1-.8 0l-1.5.5-1.6.7-1.4.7q-.4.1-.6-.3t.2-.6l1.4-.6h.1l1.6-.7 1.3-.5q-.4-.2-.7-.4l-.8.3-1.6.7-1.6.4-1.7.8q-.4.2-.6-.2t.2-.6l1.8-.8h.1l1.5-.5 1.8-.7q-.5-.3-.9-.7l-.6.2-1.5.5-1.6.5-1.5.6q-.4.2-.6-.2-.1-.5.3-.6l1.5-.6 1.6-.6 1.5-.4-.8-.6-.8.2-1.7.7-1.4.5-1.8.6q-.4.1-.5-.3-.2-.4.3-.6l1.7-.5 1.4-.6 1.7-.6V67h.3q-.4-.3-.7-.6l-.6.1-1.4.7-1.5.6-1.4.4q-.5.2-.6-.3-.1-.4.3-.5l1.4-.5 1.4-.5 1.5-.7h.1q-.1-.2-.3-.3l-.4-.4-.6.2-1.6.7-1.6.5-1.6.4q-.4.2-.6-.3-.1-.4.4-.5l1.6-.5 1.5-.4 1.9-.9-.6-.8-.6.3h-.1l-1.7.6-1.7.8-1.7.6q-.4.2-.6-.2-.1-.5.3-.6l1.6-.7 1.8-.7v-.1l2.2-.8-.6-1-1 .4-1.6.5-1.6.4-1.4.7q-.4.2-.6-.2t.2-.6l1.4-.7h.1l1.7-.5 1.5-.4.9-.5-.4-1-1 .5-1.6.5-1.5.8-1.6.7q-.4.1-.5-.3-.2-.4.2-.6l1.5-.6 1.6-.8 1.5-.5 1-.5-.4-1.2-1.3.6-1.7.7-1.4.8h-.1l-1.5.5q-.5.1-.6-.3t.3-.6l1.5-.4 1.4-.8 1.8-.7 1.3-.6-.4-1.2-1 .3-1.5.8-1.6.5-1.7.7q-.4.2-.6-.2t.2-.6l1.8-.8h.1l1.5-.4 1.5-.8 1.1-.4q-.2-.4-.4-1.1l-1 .3-1.6.6-1.5.7-1.4.8q-.4.2-.6-.2t.2-.6l1.4-.8 1.5-.7v-.1l1.7-.5 1.1-.4q-.2-.6-.3-1l-.8.3-1.6.7h-.1v.1l-1.7.4-1.6.6q-.4.1-.6-.3-.1-.4.3-.6l1.6-.5 1.7-.5 1.6-.7v-.1h.1l.8-.3q-.1-.5-.2-1.1l-.9.4-1.7.7-1.6.5v.1l-1.7.4q-.4.1-.5-.3t.3-.5l1.6-.5 1.5-.6 1.8-.6 1-.5q-.1-.7-.5-.9l-.1.1-1.5.4-1.6.7h-.1l-1.6.4q-.5.2-.6-.3-.1-.4.3-.5l1.7-.5 1.6-.6 1.5-.5.7-.3q-.1-.7-.1-1.5l-.6.1-1.4.8-1.5.7-1.8.5q-.4.2-.5-.3-.2-.4.2-.5l1.8-.6 1.4-.6 1.4-.8h.1l.8-.2q0-.8-.4-1l-1.6.4-1.6.6-1.6.5q-.4.2-.6-.2-.1-.5.3-.6l1.6-.6 1.6-.5 1.6-.5.7-.2q0-.4-.05-.7t-.35-.5l-1.7.4-1.7.7-1.8.6q-.4.1-.5-.3-.2-.5.3-.6l1.7-.5 1.6-.7h.1l1.7-.5.6-.2q0-.3-.1-.6t-.4-.5l-1.8.5-1.5.6-1.5.5q-.4.1-.5-.3-.2-.4.3-.6l1.4-.4 1.5-.7h.1l1.7-.5.6-.1q-.1-.7-.2-1l-1.5.7-1.7.5-1.5.7q-.4.2-.6-.3-.2-.4.2-.5l1.6-.7 1.6-.6 1.9-.8q0-.6-.1-1l-1.2.5-1.6.5-1.4.5q-.5.1-.6-.3t.3-.5l1.4-.5 1.6-.6 1.4-.5q0-.6-.1-1.2l-1 .5-1.4.6-1.4.6q-.5.2-.6-.2-.2-.4.2-.6l1.5-.7 1.4-.5 1.3-.6q-.1-.6-.1-1.1l-.8.4-1.7.8h-.1l-1.6.4q-.5.2-.6-.3-.1-.4.3-.5l1.6-.5 1.7-.7 1.2-.6v-1.4l-.5.2-1.8.6-1.5.7q-.4.2-.6-.2t.2-.6l1.6-.7v-.1l1.8-.5.9-.4v-.1q0-.4.1-.9l-.9.3-1.8.8-1.7.8q-.4.1-.6-.3t.2-.6l1.8-.7 1.7-.8 1.4-.6.2-1.2-.9.3-1.5.6-1.6.8q-.4.2-.6-.2t.2-.6l1.7-.8 1.4-.7h.1l1.4-.4q.2-.5 0-.7l-1.5.8-1.8.8q-.4.1-.6-.3-.1-.4.3-.6l1.7-.7 1.5-.8h.1l.8-.3q.2-.5 0-.6l-1.5.4-1.5.7q-.4.2-.6-.3-.2-.4.3-.5l1.5-.7h.1l1.4-.5 1-.4q0-.2.1-.4l-1.5.6-1.5.5q-.4.1-.6-.3-.1-.5.3-.6l1.5-.5 1.6-.6.7-.3q.2-.3.3-.6l-1.2.3-1.5.5q-.5.1-.6-.3t.3-.6l1.6-.4 1.5-.5.6-.2q.1-.2.3-.5l-1.1.4-1.4.4q-.5.2-.6-.3-.1-.4.3-.5l1.4-.5 1.3-.4-1.5.5q-.4.1-.6-.3-.1-.5.3-.6l1.2-.4h-.1q-.2-.4.2-.6l1.5-.7 1.5-.7 1-.4.4-.4-1.4.7-1.5.6q-.4.2-.6-.2t.2-.6l2-.8q.1-.2.2-.2l1.5-.6 1.3-.5q.2-.2.2-.3l-1.6.8q-.4.2-.6-.2t.2-.6l1.4-.7q0-.4.4-.5l1.7-.4 1.3-.8h.2q.6-.5 1.2-.9h.1v-.1q1.8-1 3.75-1.75t3.95-1.35q3-1.4 7.3-1.8t7.6-.2h2.5q2.9.1 5.95.3t5.55 1.4l.2.2.2.1q4.6 4.6 9.15 9.7t8.55 10.2l.1.2.1.1q1.2 2.7 1.35 6.2t.15 6.9q-.1 1.1-.1 2.15t.1 2.05q0 2-.1 5.1t-.55 6.5-1.3 6.2-2.35 4.3q-3.2 3.2-7.25 5.9t-7.85 5.1h-.1v.1q-1.8.9-4.15 1.4t-5.05.8l-1.7.6q-.4.1-.5-.3-.1-.2 0-.4-.3.1-.6.1l-1 .2q-.2.1-.35.05l-.45-.15zm119.1-2.3-1.3.6q-.4.1-.6-.2-.6.2-.8.3h-.2l-.9.3q-.1 0-.4.2l-1.4.6q-.4.2-.6-.2l-.1-.1-.8.3q-.3.1-.5-.1l-1.5.5q-.4.2-.6-.2v-.3l-1.4.5q-.4.2-.6-.3-.1-.2.1-.4l-1.5.8q-.4.2-.6-.2 0-.1-.3 0l-1.6.7q-.4.2-.6-.2t.2-.6l.8-.3-.6.2-1.4.7q-.4.2-.6-.2t.2-.6l.8-.4-.9.4-1.6.6q-.4.2-.6-.2-.1-.4.2-.6l-1.4.4q-.4.2-.5-.3-.1-.1 0-.2h-.1l-1.5.7q-.4.2-.6-.2-.1-.2 0-.3l-1.3.6q-.4.2-.6-.2-.1-.2 0-.4h-.3l-1.1.5q-.4.2-.6-.2v-.1l-1.3.5q-.4.2-.5-.2-.1-.2 0-.4h-.4l-1 .4q-.4.2-.6-.1l-1.7.6q-.4.2-.6-.2-.1-.3.1-.4l-1.3.4q-.5.2-.6-.2-.1-.3.1-.5h-.4l-.7.2q-.1.1-.7 0l-1.5.7q-.4.2-.6-.2t.3-.6h-.1l-1.5.4q-.4.2-.6-.3v-.1l-1.3.5q-.5.2-.6-.2-.1-.3-.3-.2l-1.6.6q-.4.2-.6-.2t.5-.7q0-.3.3-.4l1.5-.7 1.7-.6.9-.7-1.2.4-1.5.6-1.7.8-1.4.4q-.5.2-.6-.2-.1-.5.3-.6l1.4-.5 1.6-.7h.1l1.5-.6 1.2-1q-.1-.1-.3-.6l-1.1.3-1.7.8-1.6.8-1.6.5q-.4.2-.6-.2-.1-.5.3-.6l1.5-.6 1.6-.7 1.7-.8h.1l1-.3q-.1-.3-.1-.6-.1-.2-.5-.1l-1.7.6-1.5.7-1.8.7q-.4.1-.6-.3-.1-.4.3-.6l1.7-.6 1.6-.7 1.6-.7.8-.2v-1l-.5.1-1.6.8-1.4.6-1.6.7q-.4.2-.6-.2t.2-.6l1.6-.8 1.5-.5 1.5-.8.8-.3q0-.6-.4-.7l-1.7.7-1.7.8-1.6.6q-.4.1-.6-.3-.1-.4.3-.6l1.5-.5 1.8-.8 1.6-.8.7-.3q0-.7-.3-1l-1.5.8-1.5.7h-.1l-1.6.6q-.4.2-.6-.3-.1-.4.3-.5l1.6-.6 1.5-.7 1.5-.8h.1l.5-.2v-.4q-.1-.3-.1-.4l-1.5.8-1.5.8-1.6.7q-.4.2-.6-.2t.2-.6l1.6-.7 1.5-.8 1.5-.8.3-.1q0-.6-.1-1.2l-1.6.5-1.5.7h-.1l-1.4.5q-.4.1-.6-.3-.1-.4.3-.6l1.4-.4 1.5-.8h.1l1.9-.5q-.1-.4-.1-.7l-1.4.7-1.5.6h-.1l-1.7.4q-.5.2-.6-.3-.1-.4.3-.5l1.8-.5 1.5-.5 1.4-.8.3-.1v-1.2l-1.4.7-1.5.7h-.1l-1.5.5q-.4.1-.6-.3-.1-.4.3-.6l1.5-.4 1.5-.7 1.5-.7q.1-.1.3-.1 0-.7-.1-1.1l-1.5.5-1.4.6-1.6.6q-.4.2-.6-.2t.3-.6l1.5-.7 1.5-.5v-.1l1.9-.5v-.9l-1.5.5-1.4.6h-.1l-1.5.5q-.4.1-.6-.3-.1-.5.3-.6l1.6-.5 1.4-.5 1.8-.7v-1l-1.2.6-1.4.5h-.1l-1.7.6q-.4.1-.6-.3-.1-.4.3-.5l1.7-.6 1.5-.6 1.4-.6h.1q0-.7-.1-1.1l-1.7.4-1.6.8-1.5.7q-.4.2-.6-.2t.2-.6l1.5-.7 1.6-.8h.1l2-.6q0-.5-.1-.9l-1.6.7-1.6.4-1.5.6q-.4.1-.6-.3-.1-.4.3-.6l1.5-.5h.1l1.5-.5 1.7-.7.1-.1q0-.5-.1-1l-1 .3-1.4.6-1.5.6q-.4.2-.6-.2t.2-.6l1.5-.7 1.5-.5v-.1l1.1-.3q0-.4-.1-.7v-.2l-.9.4-1.5.6-1.8.7q-.4.1-.6-.3-.1-.4.3-.6l1.7-.6 1.6-.6 1.1-.5q-.1-.5-.4-.6l-1.7.7-1.7.6q-.4.2-.6-.2-.1-.5.3-.6l1.6-.7 1.8-.6.5-.3q0-.6-.5-.8l-1.5.5-1.5.5q-.4.1-.6-.3-.1-.5.3-.6l1.6-.5 1.4-.4.7-.3q-.1-.3-.15-.65t-.25-.55l-1.8.4-1.7.8q-.4.2-.6-.2t.3-.6l1.7-.8h.1l1.7-.5.6-.1q0-.4-.4-.4l-1.5.6-1.5.5q-.4.2-.6-.2-.1-.4.3-.6l1.4-.6 1.6-.5.6-.3q0-.7-.3-.9v.1l-1.8.4-1.6.5q-.5.1-.6-.3t.3-.6l1.7-.4 1.7-.5.6-.3q0-.8-.3-1.1l-1.5.7h-.1l-1.6.4q-.5.2-.6-.3-.1-.4.3-.5l1.6-.5 1.6-.6.6-.3q0-.6-.4-.8l-1.7.7-1.5.7q-.4.2-.6-.3-.2-.4.2-.6l1.5-.6 1.8-.7.7-.3q.1-.7-.3-.8l-1.4.4-1.8.8q-.4.2-.6-.2t.3-.6l1.7-.8h.1l1.4-.5.7-.2q0-.7-.2-1l-1.4.6h-.1l-1.6.5q-.5.1-.6-.3-.1-.5.3-.6l1.7-.5 1.4-.5.6-.2q0-.7-.4-.7l-1.7.5-1.7.8q-.4.2-.6-.2t.2-.6l1.7-.8h.1l1.7-.6.8-.4q.1-.6-.3-.7l-1.6.7-1.6.5q-.4.2-.6-.2-.1-.5.3-.6l1.6-.6 1.6-.6.8-.4q0-.6.1-1.3l-.8.3-1.7.7-1.5.6q-.4.1-.6-.3-.1-.4.3-.6l1.4-.5 1.8-.8 1.1-.4q.1-.4.1-.9l-.8.3-1.7.6-1.6.4q-.5.2-.6-.3-.1-.4.3-.5l1.7-.5 1.6-.6 1.2-.3.2-1.4-1.2.6-1.5.8-1.7.7q-.4.1-.6-.3-.1-.4.3-.6l1.6-.6 1.5-.8 1.5-.7v-.1h.1q0-.3.1-.7l-1.5.4-1.5.7-1.8.8q-.4.2-.6-.2t.3-.6l1.7-.8 1.5-.7.1-.1 1.8-.5v-1.1l-1.4.4-1.4.8-1.5.6q-.4.2-.6-.2t.2-.6l1.5-.6 1.4-.8h.1l1.7-.6q.1-.3.1-.7l-1.2.6-1.5.5-1.6.6q-.4.1-.6-.3-.1-.4.3-.6l1.6-.5 1.5-.6 1.5-.7V6.9l-1.4.7-3.1.9q-.4.2-.6-.3-.1-.4.3-.5l1.6-.5 1.5-.4 1.7-.9q0-.5-.4-.6l-1.5.6-.1.1-1.4.4q-.4.2-.6-.3-.1-.4.3-.5l1-.3-.1-.1q-.1-.5.3-.6l1.8-.6 1.3-.4q.3-.4.7-.9 1-.9 2.15-1.05t2.45-.15h4.8q1.8-.1 3.55-.1t3.55.1h1.6q.8 0 1.6.1 2.1 0 4.25.05t4.25.05h1.85q.95 0 1.95-.1 2.9-.1 5.8-.05t5.5.75h.1q2.8 1 6.2 2.55t6.55 3.45 5.15 3.9q2.5 2.5 3.85 6.5t1.75 7.4q.1 1.9.05 3.85t-.15 3.85q0 .9-.05 1.75t-.15 1.65v4.5q0 2.9-.1 6.15t-.7 6.05-2 4.5q-1.1 2.4-2.75 4.35t-3.55 3.65q-1.7 1.7-4.45 3t-5.8 2.3-5.75 1.8Zm-56.3.6-1.4.5-1.6.5-1.4.4q-.4.2-.6-.2 0-.2-.1-.2l-1.6.4q-.4.2-.5-.3l-1.1.5q-.2.1-.4 0l-1.5.4q-.4.2-.5-.2-.2-.5.3-.6l1.8-.7h-.5l-1.4.7-1.7.7q-.4.2-.6-.2v-.2l-1 .4q-.5.2-.6-.2-.1-.1-.1-.2l-1.1.3q-.5.2-.6-.2t-.3-.3l-1.8.7q-.4.2-.6-.2l-.5.2q-.4.2-.6-.2t.2-.6l.3-.4-.5.2-1.5.7q-.4.2-.6-.2v-.2l-1.2.3q-.4.2-.5-.3v-.1l-1.3.4q-.4.2-.6-.2v-.1l-.2-.2q-.1-.4.3-.6l1.7-.7h.1l1.4-.4v-.1q-.1 0-.2-.1l-1.4.4-1.5.6-1.6.6q-.4.2-.6-.2t.2-.6l1.7-.7 1.5-.5 1.2-.4q-.1-.3-.25-.6t-.25-.6l-1.3.3-1.7.8-1.7.6q-.4.2-.6-.2-.1-.4.3-.6l1.6-.7 1.8-.7v-.1l1.4-.3v-.7l-.9.3v.1l-1.8.4-1.5.7q-.4.2-.6-.3-.2-.4.3-.6l1.5-.6h.1l1.7-.5 1.2-.5q0-.1.1-.3v-.8l-1.1.5-1.4.7h-.1l-1.5.4q-.4.2-.6-.3-.1-.4.3-.5l1.5-.5 1.5-.6 1.4-.6v-.9l-1 .2-1.4.8-1.7.7q-.4.1-.6-.3-.1-.4.3-.6l1.6-.6 1.4-.8h.1l1.3-.4v-1.3l-1.3.4-1.5.5h-.1v.1l-1.5.4q-.4.1-.6-.3-.1-.4.3-.5l1.6-.5 1.5-.6 1.7-.4V62l-.8.4-1.6.8h-.1l-1.4.5q-.4.1-.6-.3-.1-.5.3-.6l1.4-.5 1.6-.7 1.2-.6q.1-.6.1-1.3l-1.5.7-1.4.7-1.8.8q-.4.2-.6-.2-.2-.5.3-.6l1.7-.8 1.4-.7v-.1h.1l1.7-.7.1-.1v-1l-1.3.5-1.6.5-1.7.5q-.4.2-.6-.3-.1-.4.3-.5l1.8-.6 1.5-.4 1.7-.6V56l-1.3.4-1.5.7h-.1l-1.7.6q-.4.1-.6-.3-.1-.4.3-.6l1.7-.5 1.6-.7 1.6-.6v-1.2l-1 .3-1.4.6-.1.1-1.7.4q-.5.1-.6-.3t.3-.5l1.7-.5 1.4-.6h.1v-.1l1.3-.4v-1l-1.4.4-1.4.8-1.8.7q-.4.1-.6-.3-.1-.4.3-.6l1.7-.6 1.4-.8h.1l1.7-.6v-.9l-1.5.6-1.5.6-1.5.7q-.4.2-.6-.2t.2-.6l1.5-.7 1.6-.7 1.8-.7q0-.5.1-1l-1.2.3-1.4.8-1.8.6q-.4.2-.6-.2-.1-.4.3-.6l1.7-.6 1.4-.8h.1l1.5-.5V46l-1.4.6-1.7.6-1.8.8q-.4.2-.6-.2-.2-.5.3-.6l1.7-.8 1.8-.7 1.8-.7v-1l-1.6.6-1.4.8-1.5.6q-.4.2-.6-.2t.2-.6l1.5-.7 1.4-.7h.1l2-.8v-.6q.1-.4-.1-.5l-1.8.7-1.7.8-1.8.8q-.4.1-.6-.3t.3-.6l1.7-.7 1.8-.8 1.7-.7V41h.1l.5-.2q.1-.6-.3-.9l-1.4.5-1.5.7v.1h-.1l-1.5.4q-.4.2-.6-.3-.1-.4.3-.5l1.5-.5 1.5-.7h.1v-.1l1.5-.4.7-.2q0-.8-.5-1l-1.5.4-1.4.8h-.1l-1.7.5q-.5.1-.6-.4-.1-.4.3-.5l1.7-.4 1.4-.8h.1l1.6-.5.8-.2q0-.7-.2-.9l-1.7.8-1.5.4-1.4.5q-.4.1-.6-.3-.1-.4.3-.6l1.5-.4 1.4-.5 1.6-.7h.1l.6-.2q0-.6-.4-.7l-.1.1-1.7.5-1.4.7h-.1l-1.7.5q-.4.2-.6-.2-.1-.5.3-.6l1.7-.6 1.4-.6h.1l1.7-.6.9-.4q0-.7-.4-.7l-1.6.6-1.6.5-1.7.8q-.4.2-.6-.2t.2-.6l1.7-.8h.1l1.6-.6 1.5-.5.9-.5q.1-.6.1-1.2l-.7.2-1.6.7-1.7.8-1.6.5q-.4.2-.6-.2-.1-.5.3-.6l1.5-.6 1.8-.7 1.5-.7h.1l1-.3q.1-.5.1-1l-1 .3-1.5.4-1.4.7-1.8.7q-.4.1-.6-.3-.1-.4.3-.6l1.7-.6 1.4-.7h.1l1.6-.5 1.2-.4V26l-.9.4-1.6.7-1.6.6-1.8.7q-.4.2-.6-.2-.1-.5.3-.6l1.7-.7 1.7-.6 1.5-.7 1.4-.6v-1.1l-.9.3-1.4.5-1.7.6-1.6.5q-.5.1-.6-.3-.1-.5.3-.6l1.7-.5 1.6-.5 1.5-.6 1.1-.3v-1l-.8.2-1.6.8-1.5.7h-.1l-1.6.5q-.5.1-.6-.3t.3-.6l1.6-.4 1.5-.7 1.6-.8h.1l1-.4v-1l-.9.3-1.6.5-1.5.6-1.8.7q-.4.2-.6-.2t.3-.6l1.7-.8 1.6-.5 1.7-.6 1.1-.3q0-.5-.1-1l-.8.3-1.6.7-1.4.8-1.5.8q-.4.2-.6-.2t.2-.6l1.5-.8 1.4-.8 1.6-.7.1-.1 1.1-.4v-.9l-.9.3-1.6.6-1.6.8-1.5.5q-.4.2-.6-.2-.1-.5.3-.6l1.4-.6 1.6-.7q.1-.1.1 0v-.1l1.6-.5 1.1-.4v-1.1l-.9.2-1.6.4-1.6.5-1.5.7q-.4.1-.6-.3t.2-.6l1.5-.6.1-.1 1.6-.4 1.7-.5 1-.3q0-.5-.4-.5l-1.5.6-1.4.5-1.7.8q-.4.2-.6-.2t.2-.6l1.7-.8 1.5-.6 1.4-.5.8-.4v-1.2l-.7.3-1.5.5-1.8.5-1.4.6q-.4.1-.6-.3-.1-.4.3-.6l1.4-.6h.1l1.7-.4 1.4-.6h.1l1-.3q-.1-.6-.1-1.1l-.7.2-1.5.6-1.4.6-1.6.8q-.4.2-.6-.2t.2-.6l1.6-.8 1.4-.7h.1l1.5-.5.1-.1.9-.2v-.9l-.6.1-1.7.8-1.6.5-1.6.4q-.5.2-.6-.3-.1-.4.3-.5l1.7-.5 1.5-.4 1.6-.8h.1l.8-.3q.1-.3.1-.5l-.8.4-1.6.5q-.1.1-.5 0l-1.5.6q-.4.2-.6-.2-.1-.5.3-.6l1.4-.6 1.4-.6q.1 0 .1-.1l2-.5q.2-1 .8-1.7 1.1-1.3 2.65-1.45t3.05-.15h.8q1.3 0 2.55.1t2.55.2q1.9.1 3.85.2t3.95 0q.3 0 .7-.05t.7-.05q1.4-.1 2.8-.05t2.5 1.15q1 1 1.15 2.2t.15 2.5v.3q-.1 3.1-.4 6.2t-.5 6.2l-.1.1q-.5 3-.45 6.95t.4 7.9.65 7.05q.2 2 .2 4.05t-.1 4.15-.15 4.2.15 4.2v.1q.2 2.3.25 4.6t.15 4.7v.4q0 1.3-.15 2.45t-1.05 2.15q-1 1-2.2 1.25t-2.5.35ZM8.52 72l1.4.5q.4-.1.6.3v.2l1.3-.5q.5-.1.6.3v.2l1.4-.5q.4-.1.5.3.1.2 0 .4h.2l1.1-.6q.4-.2.6.2.1.2 0 .3h.1l1.3-.5q.4-.2.6.2v.3h.2l1.1-.5q.4-.2.6.2v.2h.4l.9-.4q.5-.2.6.2l.1.1q.2-.1.4-.1l.9-.3q.4-.1.5.2.3 0 .6-.05l.9-.15q.2 0 .3.1 2.7-.3 5.4-.35t5.4-.05h4.5q.8 0 1.6-.05t1.6-.05q2.6 0 5.2-.05t5.1-.05q1.5 0 2.95.05t2.85.15q.2 0 .6.1h1.2q.3-.1.75-.2t.65-.3q.5-.5.55-1.15t.05-1.35v-.5q0-2.2-.05-4.3t-.15-4.2v-1.1q.1-1 0-2.05t-.7-1.55q-.5-.6-1.3-.65t-1.5-.05h-2.8q-4.8-.3-9.7-.3t-9.7-.7q-1.4-.1-2.85-.2t-2.85-.2h-.8q-.4.1-.8.05t-.8-.45-.4-.75.1-.75q.1-.5.1-.7.1-.8.1-1.65V47.6q0-.2-.1-.7v-.75q0-.35.5-.75.5-.3.9-.3t.9.1.8.1q1.1 0 2.15.05t2.15.05q4.6.2 9.25.25t9.25.55q1.1 0 2.1.05t2 .05q.4 0 .8-.1t.7-.3q.2-.3.3-.7l.2-.8q.1-.3-.1-1.1v-.5q-.1-1-.2-1.9t-.1-1.8l-.2-2.8q-.1-1.4-.1-2.8v-.6q0-.7-.1-1.4t-.6-1.1q-.5-.5-1.25-.55t-1.55-.05q-.4.1-.7.1h-3.15q-.55 0-1.15-.1h-5.7q-2.4.1-4.8.25t-4.9.15q-.9.1-1.8.1h-2.1q-.3 0-.8.1h-.8q-.4 0-.9-.3-.4-.4-.4-.75v-.75q.1-.5.1-.7v-3.1q0-.2-.1-.6-.1-.5-.1-.85t.5-.75q.4-.2.75-.25t.75-.05l.1-.1.7-.2q.5-.1.6.3v.2h.2v-.1h.1l1.1-.4q.4-.1.6.3v.2q.3 0 .6-.1l.7-.3q.4-.2.6.2.1 0 .1.1h.6l.8-.3q.4-.2.6.2.2 0 .5-.05t.8-.15q.4-.2.6.1h.6q.3 0 .9-.2.3-.1.5.2h.65q.35 0 .75-.1.3-.2.6.1.3 0 .65-.05t.85-.05q.2-.2.5 0h.65q.35 0 .85-.1.3 0 .4.1.9 0 1.7-.1h.1q2.1-.1 3.9-.3 2-.1 3.9-.1h1.8l.8-.2q.4-.1.7-.4.4-.5.45-1.2t.05-1.4q-.1-.4-.1-.6v-2.75q0-1.35-.1-2.75V7.1q.1-.1.1-.6.1-.6.05-1.2t-.45-1.1q-.2-.2-.6-.3t-.7-.2h-1.1q-.4.1-.5.1h-1.8q-.9 0-1.8.1-.9 0-1.8.05t-1.9.15q-3.4.2-6.9.35t-7-.05q-5.5-.3-11-.4t-11-.7q-2.1-.1-4-.1h-.7q-.3 0-.6-.05t-.6.05h-.1q0 .1-.2.2l-1.3.4q-.5.5-.55 1.25T8.32 6.5v6.6q0 3-.2 6 0 2-.1 4l-.2 4V31q.1 1.5.1 3t-.1 3v.1q-.1.7-.1 1.5.1.1.1.2.1.3-.1.5-.1.5-.1 1.2.1.1.1.2.2.4-.2.6 0 .6-.1 1.1.2.1.3.3.2.4-.3.6 0 .6-.1 1.1.3 0 .4.2.2.4-.4.8v.9q.4-.1.5.3.1.5-.5.7v1q.3-.1.4.2.2.4-.4.8v.9q.4 0 .5.4t-.5.6v1q.3 0 .5.3.1.4-.4.6v1q.3.1.4.4.1.4-.4.6v1q.3 0 .4.3.1.4-.4.6 0 .5-.1 1.1.4-.1.5.3t-.5.6v1q.4-.1.5.3.1.5-.6.7v1q.4-.1.6.3.1.4-.6.7v1q.4-.2.6.2.1.4-.6.7v1q.4-.1.6.3.1.4-.6.7v1q.4-.2.6.3.1.4-.5.6v1q.3 0 .4.3.2.4-.2.6.1.3.25.55t.25.45q.4-.1.5.3Zm687.9 0 1.4.5q.4-.1.6.3v.2l1.3-.5q.5-.1.6.3v.2l1.4-.5q.4-.1.5.3.1.2 0 .4h.2l1.1-.6q.4-.2.6.2.1.2 0 .3h.1l1.3-.5q.4-.2.6.2v.3h.2l1.1-.5q.4-.2.6.2v.2h.4l.9-.4q.5-.2.6.2l.1.1q.2-.1.4-.1l.9-.3q.4-.1.5.2.3 0 .6-.05l.9-.15q.2 0 .3.1 2.7-.3 5.4-.35t5.4-.05h4.5q.8 0 1.6-.05t1.6-.05q2.6 0 5.2-.05t5.1-.05q1.5 0 2.95.05t2.85.15q.2 0 .6.1h1.2q.3-.1.75-.2t.65-.3q.5-.5.55-1.15t.05-1.35v-.5q0-2.2-.05-4.3t-.15-4.2v-1.1q.1-1 0-2.05t-.7-1.55q-.5-.6-1.3-.65t-1.5-.05h-2.8q-4.8-.3-9.7-.3t-9.7-.7q-1.4-.1-2.85-.2t-2.85-.2h-.8q-.4.1-.8.05t-.8-.45-.4-.75.1-.75q.1-.5.1-.7.1-.8.1-1.65V47.6q0-.2-.1-.7v-.75q0-.35.5-.75.5-.3.9-.3t.9.1.8.1q1.1 0 2.15.05t2.15.05q4.6.2 9.25.25t9.25.55q1.1 0 2.1.05t2 .05q.4 0 .8-.1t.7-.3q.2-.3.3-.7l.2-.8q.1-.3-.1-1.1v-.5q-.1-1-.2-1.9t-.1-1.8l-.2-2.8q-.1-1.4-.1-2.8v-.6q0-.7-.1-1.4t-.6-1.1q-.5-.5-1.25-.55t-1.55-.05q-.4.1-.7.1h-3.15q-.55 0-1.15-.1h-5.7q-2.4.1-4.8.25t-4.9.15q-.9.1-1.8.1h-2.1q-.3 0-.8.1h-.8q-.4 0-.9-.3-.4-.4-.4-.75v-.75q.1-.5.1-.7v-3.1q0-.2-.1-.6-.1-.5-.1-.85t.5-.75q.4-.2.75-.25t.75-.05l.1-.1.7-.2q.5-.1.6.3v.2h.2v-.1h.1l1.1-.4q.4-.1.6.3v.2q.3 0 .6-.1l.7-.3q.4-.2.6.2.1 0 .1.1h.6l.8-.3q.4-.2.6.2.2 0 .5-.05t.8-.15q.4-.2.6.1h.6q.3 0 .9-.2.3-.1.5.2h.65q.35 0 .75-.1.3-.2.6.1.3 0 .65-.05t.85-.05q.2-.2.5 0h.65q.35 0 .85-.1.3 0 .4.1.9 0 1.7-.1h.1q2.1-.1 3.9-.3 2-.1 3.9-.1h1.8l.8-.2q.4-.1.7-.4.4-.5.45-1.2t.05-1.4q-.1-.4-.1-.6v-2.75q0-1.35-.1-2.75V7.1q.1-.1.1-.6.1-.6.05-1.2t-.45-1.1q-.2-.2-.6-.3t-.7-.2h-1.1q-.4.1-.5.1h-1.8q-.9 0-1.8.1-.9 0-1.8.05t-1.9.15q-3.4.2-6.9.35t-7-.05q-5.5-.3-11-.4t-11-.7q-2.1-.1-4-.1h-.7q-.3 0-.6-.05t-.6.05h-.1q0 .1-.2.2l-1.3.4q-.5.5-.55 1.25t-.05 1.45v6.6q0 3-.2 6 0 2-.1 4l-.2 4V31q.1 1.5.1 3t-.1 3v.1q-.1.7-.1 1.5.1.1.1.2.1.3-.1.5-.1.5-.1 1.2.1.1.1.2.2.4-.2.6 0 .6-.1 1.1.2.1.3.3.2.4-.3.6 0 .6-.1 1.1.3 0 .4.2.2.4-.4.8v.9q.4-.1.5.3.1.5-.5.7v1q.3-.1.4.2.2.4-.4.8v.9q.4 0 .5.4t-.5.6v1q.3 0 .5.3.1.4-.4.6v1q.3.1.4.4.1.4-.4.6v1q.3 0 .4.3.1.4-.4.6 0 .5-.1 1.1.4-.1.5.3t-.5.6v1q.4-.1.5.3.1.5-.6.7v1q.4-.1.6.3.1.4-.6.7v1q.4-.2.6.2.1.4-.6.7v1q.4-.1.6.3.1.4-.6.7v1q.4-.2.6.3.1.4-.5.6v1q.3 0 .4.3.2.4-.2.6.1.3.25.55t.25.45q.4-.1.5.3Zm-289.9.8q-.6 0-1.2.1h-.1q-2.6.3-5 .35t-3.8-.05l-1.9-.1q-2.4-.3-6.05-.85t-7.1-1.6-5.15-2.75h-.1v-.1q-1.8-1-3.35-2.25t-2.75-2.85h-.1v-.1q-1.5-1.5-2.55-4.1t-1.7-5.4-.85-4.9q-.2-2-.1-4.05t.3-4.05q0-.5.05-1.05t.05-1.15q.1-1.1.15-2.25t.05-2.25q0-2 .1-4t.5-3.9q1-2.6 2.45-5.85t3.2-6.25 3.75-4.9q1.3-1.3 3.4-2.4l1.4-.5h.1l1.4-.8q.1 0 .2-.1 1.3-.5 2.65-.9t2.55-.7q2.4-.5 4.85-.6t4.85 0q2.6.1 5.4.2t5.3.9q2.4.8 4.8 1.8t4.6 2.2q1.8 1 3.6 2.15t3.2 2.55q1.8 1.8 3.05 4.05t2.15 4.55q1 3 1.2 5.9 0 .1.1.5.2.8.1 1.1-.5 1-1.1 1.4 0-.1-.1-.2-.2-.4-.6-.2l-1.4.7h-.6q.2-.2.1-.5-.2-.4-.6-.2l-1.4.6h-.1q.1-.2 0-.4-.2-.4-.6-.3l-1.4.7h-.1q.1-.2 0-.4-.2-.4-.6-.2l-1.1.5h-.3v-.3q-.2-.4-.6-.3l-1.5.6v-.3q-.2-.4-.6-.3l-1.2.6q-.1 0-.3-.1v-.3q-.3-.4-.7-.1l-.8.4h-.6v-.2q-.1-.4-.6-.3l-1 .3h-.5v-.1q-.2-.4-.6-.2l-.9.15q-.3.05-.6.05-.2-.4-.5-.3-.7.2-1 .2t-.6-.1q-.1-.3-.5-.2l-.3.1q-.2 0-.5-.05t-.6-.05v-.2q-.2-.4-.6-.3-.2-.2-.25-.6t-.15-.8q.3-.2.1-.5-.1-.3-.4-.3-.3-.8-.6-1.3.1-.2.1-.5-.2-.3-.5-.3-.4-.7-.8-1.3v-.3q-.2-.3-.5-.3-.6-.7-1.4-1.2-.1-.2-.4-.2-.2-.1-.3-.1-.5-.2-.9-.2t-.9.1h-.7q-1.7 0-3.4.15t-3.3.75q-.6.3-1.25.5t-1.05.8l-.1.2v4.4q0 2 .05 4t.05 4 .05 4.05.15 4.05q.1 2.3.35 4.7t1.75 4.3q1.3 1.7 3.45 2.3t4.4.3 3.95-1.4q1.3-1 1.85-2.05t1.25-2.35q.3-.4.5-1.05t.7-.95q.5-.4 1.45-.45t1.85-.05h.7q6.4-.1 12.8.2.9 0 1.8.05t1.8.05q.1 0 .5-.1.8-.1 1 0 1.5.8 1.7 1.5t.1 2q0 .3-.1.5-.3 2.7-1.3 5.85t-2.8 5.25q-2.1 2.3-4.8 4.05t-5.4 3.35l-.1.1q-.9.8-2.6 1.4-.2-.4-.6-.2l-1.4.7q-.2-.2-.5-.1l-1.4.6q-.3-.1-.5-.1l-1.7.5q-.1-.1-.3 0zm-247.6 0h-.5q-.1-.4-.5-.3l-1.2-.9q-.2-.5-.4-.9t-.3-.9q-.1-.6-.15-1.25t-.05-1.25v-1.5q-.1-.5-.1-1.2 0-.2-.1-.4 0-.4-.05-.75t-.05-.65q.3-.2.2-.5-.1-.2-.3-.3v-1.1q.4-.2.3-.6-.1-.2-.4-.3v-1q.5-.2.4-.6-.1-.3-.4-.3V57q.5-.2.3-.6-.1-.2-.2-.3V55q.4-.2.3-.6-.1-.1-.3-.2.1-.7.1-1.2.3-.2.2-.5-.1-.2-.2-.2v-1.2q.3-.2.2-.5-.1-.2-.2-.3 0-.5-.1-1.2.4-.1.3-.5-.1-.2-.3-.3v-1.1q.4-.2.2-.6-.1-.2-.2-.3v-1q.4-.3.3-.7-.1-.2-.3-.2v-1.1q.4-.3.2-.6 0-.2-.1-.2 0-.6.1-1.3.2-.2.1-.4 0-.1-.1-.2.2-1.7.4-3.5t.3-3.6q.1-2.1.1-4.2t-.1-4.2q0-1-.05-1.95t-.05-1.95q0-3.3-.15-6.55t-.15-6.45v-.1q0-.1-.1-.5 0-.8.05-1.55t.55-1.25 1.3-.6 1.5-.1q.5.1.7 0 2.1 0 4.2-.05t4.2-.05q1.8-.1 3.55-.1h8.55q2.5 0 5-.2 1.6-.1 5.05.05t7.4.55 7.15 1.15 4.2 1.75q.1 0 .1.1h.1q1.2.8 2.3 1.75t2 2.05q1.9 2.2 2.7 5.4t1.3 5.9q.2 2.1.05 4.1t-1.15 3.8q-1.3 2.6-3.8 4.5-.2.2-.8.4-.5.2-.9.45t-.3 1.05q.1 1.1.9 1.15t1.5.45q1.7.9 3.2 2.3 1.9 1.8 3.25 4.95t1.15 5.85q-.1 3.2-1 6.1-.6 1.8-1.6 3.4-3 3-7.25 5.35t-7.95 4.35q-2.5.8-5.15 1.15t-5.25.55q-1.6.1-3.15.1t-3.15-.1h-4.6q-1.6.1-3.25.15t-3.25.05h-.3q-.4.1-.75.1h-.75q-.2-.2-.5 0-.4 0-.7.05t-.6.05q-.2-.3-.5-.1-.5.1-.8.1h-.6q-.2-.3-.5-.2l-.6.3h-.7q-.2-.4-.6-.2l-.6.2h-.7q-.2-.4-.6-.3l-1 .3h-.3q-.2-.4-.6-.3l-.7.3h-.7q-.1-.4-.5-.2l-.7.2h-.6q-.2-.4-.6-.3zm464.7-2v-.2q-.2-.4-.45-.8t-.35-.9q-.1-.4-.1-1.1.1-.4.1-.7-.1-1.3-.2-2.7t-.1-2.8h-.1q-.3-2.2-.3-4.45V52.7q0-2.4-.05-4.8t-.45-4.7q.2-.2.1-.5-.1-.2-.2-.3l-.2-.6v-.5q.5-.1.4-.5t-.5-.4q0-.5-.1-.9.7-.3.6-.7-.2-.4-.6-.3-.1-.3-.1-.9.8-.4.7-.8-.2-.4-.6-.2-.2-.3-.2-1l.5-.1q.4-.2.3-.6t-.6-.3q-.3-.2-.3-.8l.6-.3q.4-.2.2-.6t-.6-.2q-.2-.2-.2-.9l.6-.3q.4-.2.2-.6-.1-.4-.6-.2-.2-.2-.2-.9l.6-.2q.4-.2.3-.6-.2-.4-.6-.3-.3-.2-.3-.9l.6-.2q.4-.1.3-.6-.2-.4-.6-.2-.2-.3-.2-.9.9-.4.8-.8-.2-.4-.6-.3-.1-.3-.1-.9.8-.4.6-.8-.1-.4-.5-.2v-1.1q.7-.2.6-.6-.2-.4-.5-.3 0-.5.1-1 .5-.3.3-.7-.1-.2-.3-.3.1-.5.1-1.1.4-.2.3-.5-.1-.2-.2-.3l.2-1.4v-.2q0-.5.1-1.1.1-1.6.15-3.2t.05-3.2v-.7q-.1-.7 0-1.45t.6-1.35q.5-.5 1.25-.55t1.45.05h5q1.7-.1 3.5-.1t3.5.1h1.6q.8 0 1.6.1 2.2 0 4.3.05t4.3.05h1.85q.95 0 1.95-.1 2.7-.1 5.45-.1t5.25.7q2.6.9 5.8 2.35t6.2 3.25 4.9 3.7q2.2 2.2 3.35 5.85t1.55 6.55q.1 1.9.05 3.75t-.15 3.75q0 .8-.05 1.65t-.05 1.65q-.1.8-.1 1.8V41q0 2.8-.15 6.05t-.6 6-1.65 3.95l-.1.1v.1q-1 2.2-2.5 4.05t-3.3 3.35l-.1.1q-1.8 1.8-5 3.15t-6.65 2.35-5.95 1.6q-1.7.3-3.4.3h-3.4q-1.3 0-2.5-.05t-2.4.05q-1.5.1-2.9.2l-2.8.2h-.3q-.7.1-1.5.1-.2-.2-.5 0-.5.1-.8.1h-.6q-.1-.3-.5-.2l-.9.3h-.5q-.2-.4-.6-.3l-.9.4h-.5v-.1q-.2-.4-.6-.2l-.8.3h-.5v-.1q-.1-.4-.6-.3l-1.2.4h-.1q-.1 0-.1-.1-.1-.4-.6-.3l-.9.4h-.4q0-.1-.1-.1-.2-.4-.6-.2l-.7.3h-.6v-.1q-.2-.4-.6-.2l-.8.3h-.5v-.1q-.1-.3-.4-.3zm-548 .5q-.2-.4-.4-.75t-.2-.75q-.1-.3-.1-1.1v-14q-.2-3-.1-6.15l.2-6.35q.2-4.3.25-8.65t-.55-8.35q-.2-1.8-.3-3.6.2-.2.1-.4 0-.1-.1-.2-.1-.6-.1-1.3.3-.2.2-.5-.1-.2-.2-.2-.1-.6-.1-1.2.4-.2.2-.6 0-.2-.2-.2v-1.1q.4-.2.3-.6-.1-.2-.3-.3 0-.5-.1-1.1.5-.2.3-.6 0-.2-.3-.3 0-.5.1-1 .4-.2.3-.6-.1-.3-.3-.3V10q.4-.1.3-.6-.1-.2-.3-.3V8q.4-.1.3-.5-.1-.2-.3-.3 0-.5.1-.9.1-.3.1-.4.1-.1.1-.3.2-.6.5-.9.6-.6 1.4-.7t1.6-.1h.6q3.5-.3 7.1-.45t7.1-.05q.5 0 1 .05t1 .05h.7q.7 0 1.5.1t1.4.6q.5.6.6 1.4t.1 1.5q.1.4.1.6.1 3 .1 5.9-.1 3.9-.3 7.9t-.5 7.9q-.2 3.5-.15 7t.15 7q.1 2 .15 3.95t.05 3.85q0 .3-.1.8t-.1.9.5.8q.4.5.85.45t.95-.15.7-.1q1.5 0 3-.1t2.9-.2h.1q3.7-.5 7.7-.5t7.8.1h2.7q.7 0 1.45.1t1.25.6.6 1.25.1 1.45q-.1.5 0 .7v4.8q0 2.4.1 4.8 0 .3.05.6t.05.6q.1.6.15 1.2t-.15 1.2q-.1 1.1-.45 1.45t-1.45.55q-.6.1-1.2.05t-1.3-.15h-1.2q-2.5-.1-4.95-.1h-12.05q-1.5 0-3 .1-1.4 0-2.75.05t-2.75.05h-.3q-.8.1-1.5.1-.2-.1-.4-.1-.5.1-.85.1h-.75q-.2-.1-.4-.1-.8 0-1.6-.05t-1.6-.05q-1 0-1.95-.05t-1.95-.05q-1.4-.1-2.8-.05t-2.9.05q-.8.1-1.6.1h-1.6zm154.6 0q-.2-.4-.4-.75t-.2-.75q-.1-.3-.1-1.1v-14q-.2-3-.1-6.15l.2-6.35q.2-4.3.25-8.65t-.55-8.35q-.2-1.8-.3-3.6.2-.2.1-.4 0-.1-.1-.2-.1-.6-.1-1.3.3-.2.2-.5-.1-.2-.2-.2-.1-.6-.1-1.2.4-.2.2-.6 0-.2-.2-.2v-1.1q.4-.2.3-.6-.1-.2-.3-.3 0-.5-.1-1.1.5-.2.3-.6 0-.2-.3-.3 0-.5.1-1 .4-.2.3-.6-.1-.3-.3-.3V10q.4-.1.3-.6-.1-.2-.3-.3V8q.4-.1.3-.5-.1-.2-.3-.3 0-.5.1-.9.1-.3.1-.4.1-.1.1-.3.2-.6.5-.9.6-.6 1.4-.7t1.6-.1h.6q3.5-.3 7.1-.45t7.1-.05q.5 0 1 .05t1 .05h.7q.7 0 1.5.1t1.4.6q.5.6.6 1.4t.1 1.5q.1.4.1.6.1 3 .1 5.9-.1 3.9-.3 7.9t-.5 7.9q-.2 3.5-.15 7t.15 7q.1 2 .15 3.95t.05 3.85q0 .3-.1.8t-.1.9.5.8q.4.5.85.45t.95-.15.7-.1q1.5 0 3-.1t2.9-.2h.1q3.7-.5 7.7-.5t7.8.1h2.7q.7 0 1.45.1t1.25.6.6 1.25.1 1.45q-.1.5 0 .7v4.8q0 2.4.1 4.8 0 .3.05.6t.05.6q.1.6.15 1.2t-.15 1.2q-.1 1.1-.45 1.45t-1.45.55q-.6.1-1.2.05t-1.3-.15h-1.2q-2.5-.1-4.95-.1h-12.05q-1.5 0-3 .1-1.4 0-2.75.05t-2.75.05h-.3q-.8.1-1.5.1-.2-.1-.4-.1-.5.1-.85.1h-.75q-.2-.1-.4-.1-.8 0-1.6-.05t-1.6-.05q-1 0-1.95-.05t-1.95-.05q-1.4-.1-2.8-.05t-2.9.05q-.8.1-1.6.1h-1.6zm90 2q-1.9-.2-3.95-.35t-4.05-.45q0-.1-.1-.1-1-.1-1.9-.4h-.1q-.7-.3-1.4-.5-3-1.5-6.05-3.5t-5.45-4.3q-2.4-2.4-3.55-6.2t-2.15-7q-.5-1.9-.65-3.9t-.15-4q-.1-1.2-.15-2.4t-.15-2.4q0-.4-.05-.8t-.15-.9q-.1-1.6-.25-3.2t-.15-3.3q.2-.2 0-.4v-.1q0-.7.1-1.5v-.3q.3-.2.1-.5v-.1q0-.7.2-1.4.3-.1.1-.5v-.1q.1-.6.3-1.3.3-.2.1-.5v-.1q.2-.7.4-1.3.3-.2.2-.5v-.1q.2-.7.5-1.3.2-.2.2-.5.7-1.5 1.6-2.7 3.7-4.8 8.9-8.5 1.7-1 3.5-1.7t3.7-1.3h.1q2.7-1.3 6.8-1.65t7.1-.15h2.6q2.6 0 5.35.2t4.95 1.2q4.5 4.5 8.95 9.5t8.35 10q1.1 2.4 1.2 5.65t.1 6.45q0 1.1-.05 2.15t.05 2.05q0 1.7-.1 4.6t-.45 6.05-1.1 5.8-1.95 3.85q-3.1 3.1-7.05 5.7t-7.65 5q-2.7 1.4-6.75 1.65t-7.15.35zm219 0q-1.9-.2-3.95-.35t-4.05-.45q0-.1-.1-.1-1-.1-1.9-.4h-.1q-.7-.3-1.4-.5-3-1.5-6.05-3.5t-5.45-4.3q-2.4-2.4-3.55-6.2t-2.15-7q-.5-1.9-.65-3.9t-.15-4q-.1-1.2-.15-2.4t-.15-2.4q0-.4-.05-.8t-.15-.9q-.1-1.6-.25-3.2t-.15-3.3q.2-.2 0-.4v-.1q0-.7.1-1.5v-.3q.3-.2.1-.5v-.1q0-.7.2-1.4.3-.1.1-.5v-.1q.1-.6.3-1.3.3-.2.1-.5v-.1q.2-.7.4-1.3.3-.2.2-.5v-.1q.2-.7.5-1.3.2-.2.2-.5.7-1.5 1.6-2.7 3.7-4.8 8.9-8.5 1.7-1 3.5-1.7t3.7-1.3h.1q2.7-1.3 6.8-1.65t7.1-.15h2.6q2.6 0 5.35.2t4.95 1.2q4.5 4.5 8.95 9.5t8.35 10q1.1 2.4 1.2 5.65t.1 6.45q0 1.1-.05 2.15t.05 2.05q0 1.7-.1 4.6t-.45 6.05-1.1 5.8-1.95 3.85q-3.1 3.1-7.05 5.7t-7.65 5q-2.7 1.4-6.75 1.65t-7.15.35zM647.92 52v-6q0-3-.1-6-.2-3.4-.25-6.85t.15-6.85v-1.6l1.5-.5.6-.3h.4l-2.1.9q-.4.2-.2.6.1.4.6.2l1.6-.6 1.5-.8.9-.4q.8.1 1.4.1l-.8.3-1.7.6h-.1l-1.6.7q-.4.1-.3.5.2.5.6.3l1.7-.7 1.7-.5 1.5-.6.5-.2q.6.1 1 .4l-1.3.7-1.7.5h-.1l-1.4.6q-.4.1-.3.5.2.5.6.3l1.4-.6 1.8-.4v-.1l1.5-.7q.5.1.75.3t.45.5l-2 .6h-.1l-1.7.7-1.6.4q-.5.1-.3.6.1.4.5.3l1.7-.5 1.7-.6 1.7-.5q.5.1.65.35t.15.45l-.3.1-1.6.6-1.8.6-1.7.6q-.4.2-.2.6.1.4.6.3l1.6-.7 1.7-.5 1.7-.6q.2.3.25.7t.05.8l-2 .9-1.5.6-1.4.5q-.4.1-.3.6.2.4.6.2l1.4-.4h.1l1.4-.7 1.7-.7q0 .4.1.6v.4l-2 .6-1.8.6v.1l-1.7.7q-.4.2-.2.6t.6.2l1.7-.7 1.7-.7 1.7-.5V35l-1.7.8-1.6.7-1.4.5q-.5.2-.3.6t.6.3l1.4-.6 1.7-.7 1.3-.6v1.1l-1.5.7-1.4.4-1.7.5q-.5.1-.4.6.2.4.6.3l1.7-.5 1.5-.5h.1l1.1-.5q0 .6-.1 1.2l-1.3.6-1.6.6-1.8.5q-.4.2-.3.6.2.4.6.3l1.8-.6 1.6-.5v-.1l1-.4v.9l-1.6.6-1.6.8-1.6.8q-.4.2-.2.6t.6.2l1.6-.8 1.6-.7 1.2-.5q-.1.3-.1.6v.6l-1.3.5-1.5.5-1.7.5q-.4.2-.3.6.2.4.6.3l1.6-.6 1.6-.4 1-.4q-.1.8-.1 1.3l-1.3.7-1.5.4h-.1l-1.7.8q-.4.2-.2.6t.6.2l1.7-.7 1.5-.5.9-.4q-.1.5-.2.9l-1.5.5-1.6.4h-.1v.1l-1.5.7q-.4.2-.2.6.3.4.7.2l1.4-.7 1.6-.5.8-.2q-.3.7-.8 1.2-.1.2-.3.3l-1.9 1-1.6.6q-1 .1-1.95.1h-3.75Zm-324.6.2q-.4-.1-.6-.2h-.2q-1.2-.1-2.35-.35t-1.95-1.15q-.9-1.1-1-2.65t0-2.95q0-.5.1-.7.2-2.9.2-5.9t.1-5.9v-5.9q0-.2-.2-.7-.1-.5-.1-.6.1-.2 1.1-.5.2 0 .4-.1.7-.2 1.05-.35t.55-.15l.8-.2q.1.1.3 0 .9-.1 1.7-.15t1.6-.05h.6q.5-.1.7-.1l-.8.4-1.8.8-1.6.8q-.4.1-.3.5.2.5.6.3l1.7-.8 1.7-.8h.1l1.2-.6q.2.3.2.4.2.3.4.7l-1.6.5v.1l-1.6.6-1.5.8q-.4.2-.2.6t.6.2l1.5-.7 1.5-.7 1.5-.5q.2.3.3.9v.1l-1.4.6-1.6.6-1.8.6q-.4.2-.3.6.2.4.6.3l1.8-.7 1.6-.5v-.1l1.3-.5q.1.5.1 1.3l-1.6.5h-.1l-1.4.8-1.6.7q-.4.2-.2.7.2.4.6.2l1.6-.8 1.4-.8 1.4-.4q.1.5.1 1l-1.4.5-1.7.4-.1.1-1.6.8q-.4.2-.2.6t.6.2l1.5-.8 1.8-.4 1.2-.4v1.4l-1.7.5-1.4.5h-.1l-1.5.8q-.5.2-.3.6t.7.2l1.5-.8 1.4-.4 1.4-.5v1.1l-1.3.4-1.4.5h-.1l-1.7.8q-.4.1-.3.5.2.5.6.3l1.8-.8 1.4-.4.9-.3q0 .7-.1 1.6l-1.3.6-1.5.6-1.6.8q-.4.2-.2.6t.6.2l1.6-.8 1.4-.5v-.1l1-.4v.2q0 .1-.1.2l-1.3.4h-.1l-1.5.7h-.1l-1.4.8q-.4.2-.2.6t.6.2l1.4-.8 1.5-.6 1.1-.4q-.1.6-.1 1.1l-1.2.5-1.7.6-1.7.8q-.4.2-.2.6t.6.2l1.6-.8 1.7-.5.9-.4v.8l-1.2.6-1.6.6-1.7.7q-.4.1-.3.6.2.4.6.2l1.8-.6 1.5-.7.9-.4v.4l-1.3.6-1.7.6-1.7.6q-.5.1-.3.5.1.5.6.3l1.7-.5 1.8-.7.9-.4v1l-1.1.4h-.1l-1.4.6-1.5.7q-.5.2-.3.6t.6.2l1.6-.6 1.4-.7.7-.3q0 .4-.1.8l-1.6.4h-.1l-1.4.7-1.4.5q-.4.2-.3.6.2.4.6.3l1.4-.6 1.5-.6 1.1-.4q0 .3-.1.6-.1.4-.3.7l-1.2.6-1.6.4zm219 0q-.4-.1-.6-.2h-.2q-1.2-.1-2.35-.35t-1.95-1.15q-.9-1.1-1-2.65t0-2.95q0-.5.1-.7.2-2.9.2-5.9t.1-5.9v-5.9q0-.2-.2-.7-.1-.5-.1-.6.1-.2 1.1-.5.2 0 .4-.1.7-.2 1.05-.35t.55-.15l.8-.2q.1.1.3 0 .9-.1 1.7-.15t1.6-.05h.6q.5-.1.7-.1l-.8.4-1.8.8-1.6.8q-.4.1-.3.5.2.5.6.3l1.7-.8 1.7-.8h.1l1.2-.6q.2.3.2.4.2.3.4.7l-1.6.5v.1l-1.6.6-1.5.8q-.4.2-.2.6t.6.2l1.5-.7 1.5-.7 1.5-.5q.2.3.3.9v.1l-1.4.6-1.6.6-1.8.6q-.4.2-.3.6.2.4.6.3l1.8-.7 1.6-.5v-.1l1.3-.5q.1.5.1 1.3l-1.6.5h-.1l-1.4.8-1.6.7q-.4.2-.2.7.2.4.6.2l1.6-.8 1.4-.8 1.4-.4q.1.5.1 1l-1.4.5-1.7.4-.1.1-1.6.8q-.4.2-.2.6t.6.2l1.5-.8 1.8-.4 1.2-.4v1.4l-1.7.5-1.4.5h-.1l-1.5.8q-.5.2-.3.6t.7.2l1.5-.8 1.4-.4 1.4-.5v1.1l-1.3.4-1.4.5h-.1l-1.7.8q-.4.1-.3.5.2.5.6.3l1.8-.8 1.4-.4.9-.3q0 .7-.1 1.6l-1.3.6-1.5.6-1.6.8q-.4.2-.2.6t.6.2l1.6-.8 1.4-.5v-.1l1-.4v.2q0 .1-.1.2l-1.3.4h-.1l-1.5.7h-.1l-1.4.8q-.4.2-.2.6t.6.2l1.4-.8 1.5-.6 1.1-.4q-.1.6-.1 1.1l-1.2.5-1.7.6-1.7.8q-.4.2-.2.6t.6.2l1.6-.8 1.7-.5.9-.4v.8l-1.2.6-1.6.6-1.7.7q-.4.1-.3.6.2.4.6.2l1.8-.6 1.5-.7.9-.4v.4l-1.3.6-1.7.6-1.7.6q-.5.1-.3.5.1.5.6.3l1.7-.5 1.8-.7.9-.4v1l-1.1.4h-.1l-1.4.6-1.5.7q-.5.2-.3.6t.6.2l1.6-.6 1.4-.7.7-.3q0 .4-.1.8l-1.6.4h-.1l-1.4.7-1.4.5q-.4.2-.3.6.2.4.6.3l1.4-.6 1.5-.6 1.1-.4q0 .3-.1.6-.1.4-.3.7l-1.2.6-1.6.4zm45.9 20.6h-.3q-.6-.3-.8-.3l-1.6-.7q-.1-.1-.2-.1-.1-.3-.25-.55t-.25-.55q.2-.2.1-.5-.1-.2-.2-.2v-1.3q.3-.2.2-.5l-.1-.1v-1.3q.2-.2.1-.5-.1-.1-.1-.2v-1.4q.2-.2 0-.4 0-.8.1-1.6v-.3q.3-4.9.2-9.85t.3-9.85q.3-3.8.5-7.65t.4-7.65q.1-3.2 0-6.45l-.2-6.45v-.7q-.1-1.5-.15-3.1t-.05-3.1v-.8q-.1-.7-.1-1.45t.4-1.35l1.1-.5q.2-.1.3-.3.6-.2 1.25-.2t1.35.1h.8q1.3 0 2.55.1t2.55.2q2 .1 3.95.2t3.95 0q.3 0 1.2-.1 1-.1 2.05-.15t1.65.55q.5.5.55 1.25t.05 1.45v.6q-.1 3-.35 6.05t-.55 6.05q-.6 3.4-.55 7.3t.4 7.9.75 7.3q.1 2.1.1 4.1t-.1 4.1-.1 4.2.1 4.2q.2 2.3.25 4.6t.15 4.6v.6q0 .7-.05 1.45t-.55 1.35q-.6.6-1.7.7t-2.1.1h-1.2q-3.2.4-6.45.55t-6.45.35q-.2-.1-.4 0-.4 0-.7.05t-.6.05q-.2-.3-.6-.2zm-263.3-17.4-1.7-.7-.8.4q-.4.2-.6-.2-.1-.4.2-.6-1.6-.1-3.05-.55T316.42 52q-1.4-1.6-1.55-3.65t-.05-3.95q.1-.2.1-.3.2-2.9.2-5.9t.1-6.2v-5.5q0-.3-.1-.8-.1-.4-.1-.85t.3-.85q.2-.5.9-1 .1-.2.3-.3l.8-.3.8-.4q0-.1.1-.1l.8-.2.8-.2q.3-.1.5.1.6-.1 1.2-.1l.6-.3q.3-.2.6.2.5 0 1.2-.1l.6-.2q.4-.2.6.2h.5q.2-.1.5-.15l.9-.15q.4-.1.6.3v.1q.6.3.95.85t.65 1.15q.8 1.4 1.1 3t.5 3.2q.2 1.9.2 3.9t-.1 4q0 .1.1.1.1.4-.2.6v1q.1 0 .1.2.1.3-.2.5v1q.1 0 .1.2.2.3-.2.5v.9q.1.1.2.3.2.4-.2.5v1q.1 0 .1.2.2.3-.1.5v1.2q.2.3 0 .5-.1.9-.1 1.6 0 .2-.1.3-.1 1.2-.4 2.2-.4 1.2-1 2.1t-1.6 1.6q-.4.3-.9.45t-1 .45h-.6Zm219 0-1.7-.7-.8.4q-.4.2-.6-.2-.1-.4.2-.6-1.6-.1-3.05-.55T535.42 52q-1.4-1.6-1.55-3.65t-.05-3.95q.1-.2.1-.3.2-2.9.2-5.9t.1-6.2v-5.5q0-.3-.1-.8-.1-.4-.1-.85t.3-.85q.2-.5.9-1 .1-.2.3-.3l.8-.3.8-.4q0-.1.1-.1l.8-.2.8-.2q.3-.1.5.1.6-.1 1.2-.1l.6-.3q.3-.2.6.2.5 0 1.2-.1l.6-.2q.4-.2.6.2h.5q.2-.1.5-.15l.9-.15q.4-.1.6.3v.1q.6.3.95.85t.65 1.15q.8 1.4 1.1 3t.5 3.2q.2 1.9.2 3.9t-.1 4q0 .1.1.1.1.4-.2.6v1q.1 0 .1.2.1.3-.2.5v1q.1 0 .1.2.2.3-.2.5v.9q.1.1.2.3.2.4-.2.5v1q.1 0 .1.2.2.3-.1.5v1.2q.2.3 0 .5-.1.9-.1 1.6 0 .2-.1.3-.1 1.2-.4 2.2-.4 1.2-1 2.1t-1.6 1.6q-.4.3-.9.45t-1 .45h-.6Zm104.6-1-2.1.1q-.3 0-.5-.3-.3-.3-.3-.5-.1-3.4-.1-6.8t-.1-6.8q-.2-3.5-.25-6.95t.15-6.85q0-1 .05-2t.05-2l.1-.2.1-.3q.5-.4.9-.4h.9q.5.1.8.1h2.1q2.2-.1 4.5.15t4.1 1.85q.8.8 1.4 1.9.9 1.5 1.05 3.25t.25 3.55q0 2.6-.05 5.3t-.15 5.4q-.1 2.3-.35 4.55t-1.75 4.15q-1.8 2.1-4.45 2.45t-5.25.35zm-460.3-7.3q.2 0 .4-.1h.8l-.8.3-1.7.4-.1.1-1.6.6q-.4.2-.2.6t.6.3l1.5-.7 1.7-.4 1.7-.6.7-.3v.1q.7.4 1 1.1l-2.2.8-1.7.7-1.6.5q-.4.2-.3.6.2.4.6.3l1.6-.6 1.7-.6 1.8-.6q.6.4.3 1.5l-1.4.5-1.7.6-1.8.5q-.4.1-.3.5.1.5.6.3l1.7-.4h.1l1.7-.7.7-.2q-.4.7-1 1.1-.4.2-.95.3t-1.05.2q-.4.1-.85.1h-.85l-2.4.2-2.4.2q-.1-1.4-.15-2.8t-.15-2.7q.4-.1.4 0 .2.4.6.2l1.4-.4h.1l1.7-.8zm-6.5 9.6-.9-.1q-.2 0-.4-.3-.3-.3-.3-.5-.1-1.7-.15-3.5t-.15-3.5q-.2 0-.3-.3l-.1-.1q-.1-.1-.2-.3-.2-.4.6-.8-.1-.1-.1-.4-.1-.5-.15-.9t.35-.9q.1 0 .3-.1l.3-.1q.9-.1 1.85-.1h1.85q.9 0 1.8-.05t1.8-.05h.6q1-.1 2.05-.05t1.95.65q1.8 1.1 2.3 3.05t-.1 3.9-2.3 3.05q-.6.4-1.35.55t-1.45.35q-.5.1-1 .1h-1q-1.4.1-2.8.25t-2.8.15h-.2Zm2.9-34.3h.8l-.9.3q-.4.1-.3.6.1.4.6.2l1.4-.4 1.6-.6q1.2 0 1.8.4 0 .1.1.1l-.9.3-1.5.6-1.8.5q-.4.2-.3.6.2.4.6.3l1.8-.6 1.5-.6 1.2-.3q.3.6.4 1.3l-1.3.5-1.4.4h-.1l-1.5.7q-.5.2-.3.6t.6.2l1.6-.6 1.4-.5 1-.3q0 .5-.2 1l-1.7.7-1.5.5q-.5.2-.7.2-1.1 0-2.25-.05t-2.35-.05v-5.3q.2 0 .3-.1l1.7-.4h.1zm-3.6 8.3-1.1-.8q0-.1-.2-.3-.1-.3-.1-.4v-6.9q-.1-.2 0-.4v-.4q-.2-.1-.3-.3-.1-.3.1-.5 0-.5.5-.9.4-.4.75-.35t.75.15q.3.1.4.1.2 0 .3.1h.6q.3 0 .7-.1t.6.2h.4l.8-.2q.4-.1.5.3l1.2-.3q.4-.1.5.3v.1h.3l.7-.3q.4-.2.6.2.1.1.1.2.6.1 1 .3l.6-.2q.4-.1.6.3 0 .3-.2.5.6.4 1 1 .4-.2.6.2.1.4-.2.6.4.7.5 1.5l.2.2q.1.2-.1.4.2 1.5-.35 2.95t-1.85 2.25q-.6.3-1.2.45t-1.3.25h-1.8q-1.3 0-2.6-.05t-2.6-.05h-.2zM501.72 6q0-.1.1-.4.2.3.4.4.9 1 1.2.6t.1-1.2-.65-1.15-.85.85q-.1.1-.2.5-.1.3-.1.4l-.2.4q-.6-.8-.3-1.5l.3.3q.2.2.3.4M32.62 49.7q-.2.1-.2.2v-.5q.4-.2.5-.2l1.4-.7 1.6-.5.8-.2h.1l-.9.4-1.7.7-.1.1zm687.9 0q-.2.1-.2.2v-.5q.4-.2.5-.2l1.4-.7 1.6-.5.8-.2h.1l-.9.4-1.7.7-.1.1zm-254.5 11.8-2 .7v-.7l1.7-.5h.1l1.5-.8q.3.4.5.7zm-.6-1.3-1.5.4v-1l.9-.5 1.4-.6q.4.5.6.9zm1.2-44.9 1.1-.4-.2.6-2.1 1.1q-.5-.1-.5-.7zm-101 .4 1.7-.9 1-.5-.4.8q-.2-.4-.6-.2zm-58.8 58.7-1.1.4 1.4-.7 1-.3h.1zm219 0-1.1.4 1.4-.7 1-.3h.1zm-21.7-68q0-.3.1-.4.7-1.9.95-1.95t-.05.8-1 1.55Zm-37.8 8.1 1-.6 1.2-.5-.2.4zm-1.9 43.8q-.5-.1-.5-.7l.5-.3.8-.4q.1.2.25.4t.25.4zm-78.6 16.8 1.5-.7q-.1 0-.2.1zm80.6-57q-.2.2-.3.5l-.6.2q-.5.1-.5-.1zm-2.4 38.4q-.2-.2-.2-.9.6 0 .9.6zm-137.6-4.2-.4.2q-.1.1-.3.2l-.5.2zm219 0-.4.2q-.1.1-.3.2l-.5.2zm-157.4 22.8.8-.4q.2 0 .4.1zm-205.8-27.3 1-.4zM43.02 74.9l.7-.4h.2zm687.9 0 .7-.4h.2z" font-size="12" style="stroke:current;stroke-width:.25mm;fill:none" vector-effect="non-scaling-stroke"></path></svg>
